<?xml version="1.0" encoding="UTF-8"?>
<svg version="1.1" xmlns="http://www.w3.org/2000/svg" width="500" height="500">
<path d="M0 0 C1.42505859 0.59361328 1.42505859 0.59361328 2.87890625 1.19921875 C8.15854807 3.62543583 12.60165972 6.77558718 17.08984375 10.44921875 C19.12533482 12.15129437 19.12533482 12.15129437 22 14 C22 14.66 22 15.32 22 16 C22.66 16 23.32 16 24 16 C36.62239937 30.23806649 43.29428317 46.71431708 43.4375 65.6875 C43.44765137 66.63729736 43.45780273 67.58709473 43.46826172 68.56567383 C43.38403009 75.41987401 42.08010582 81.48075025 40 88 C38.140625 88.58203125 38.140625 88.58203125 36 89 C33.75 87.6875 33.75 87.6875 32 85 C31.36959293 79.8703863 31.89419624 75.02556344 33 70 C31.28103516 70.10441406 31.28103516 70.10441406 29.52734375 70.2109375 C15.72662617 70.80628044 15.72662617 70.80628044 11.5625 67.5 C8.57172938 64.08988852 7.59498573 60.4157977 7 56 C6.66699426 53.81245011 6.33363686 51.62495373 6 49.4375 C5.855625 48.38433594 5.71125 47.33117187 5.5625 46.24609375 C4.96139785 42.7772334 3.96717117 39.38509909 3 36 C-5.58 36 -14.16 36 -23 36 C-23.33 44.25 -23.66 52.5 -24 61 C-20.37 61 -16.74 61 -13 61 C-11.35 61.33 -9.7 61.66 -8 62 C-7.95758277 64.33294775 -7.95907063 66.66702567 -8 69 C-9 70 -9 70 -12.37890625 70.09765625 C-13.77347492 70.09191424 -15.16801597 70.07890228 -16.5625 70.0625 C-19.016875 70.041875 -21.47125 70.02125 -24 70 C-24 78.58 -24 87.16 -24 96 C-19.10846529 95.9604321 -19.10846529 95.9604321 -14.21704102 95.90991211 C-12.47778283 95.90275087 -10.73854696 95.94975298 -9 96 C-8 97 -8 97 -8 105 C-13.28 105 -18.56 105 -24 105 C-24 111.93 -24 118.86 -24 126 C-16.46299142 123.72088149 -16.46299142 123.72088149 -11 120 C-10.01 120 -9.02 120 -8 120 C-8 124.62 -8 129.24 -8 134 C-14.58241683 136.50663752 -20.09922291 137.52035576 -27.125 137.4375 C-28.04224854 137.42920166 -28.95949707 137.42090332 -29.90454102 137.41235352 C-47.61729611 136.97754228 -64.71623226 129.79273259 -78 118 C-78 117.34 -78 116.68 -78 116 C-78.66 116 -79.32 116 -80 116 C-95.36764006 98.38868449 -100.42153231 79.82941121 -99.21435547 56.75390625 C-98.12578981 42.76868913 -91.44182395 28.44201717 -82 18 C-81.34 18 -80.68 18 -80 18 C-79.78214844 17.43023437 -79.56429687 16.86046875 -79.33984375 16.2734375 C-73.65502502 6.62747685 -58.5173905 -0.11352609 -48.3125 -3.375 C-32.17773789 -7.27697818 -15.2789622 -6.47171911 0 0 Z M-46.16015625 12.08984375 C-50.2756912 16.59000814 -52.89387091 20.5642741 -56 26 C-48.41 26 -40.82 26 -33 26 C-33 19.07 -33 12.14 -33 5 C-38.40901215 5 -42.37633609 8.42918591 -46.16015625 12.08984375 Z M-24 5 C-24 11.93 -24 18.86 -24 26 C-16.41 26 -8.82 26 -1 26 C-4.83365057 16.41587358 -11.38853754 9.13022684 -21 5 C-21.99 5 -22.98 5 -24 5 Z M-65.875 16.6875 C-66.73867187 17.37199219 -67.60234375 18.05648437 -68.4921875 18.76171875 C-70.99471538 20.99528335 -72.98561872 23.32508905 -75 26 C-72.03 26 -69.06 26 -66 26 C-65.0204042 24.20856793 -64.0413367 22.41684696 -63.0625 20.625 C-62.51722656 19.62726563 -61.97195312 18.62953125 -61.41015625 17.6015625 C-60.5850241 16.07929654 -59.77435609 14.54871217 -59 13 C-62.07797374 13 -63.51023623 14.78937359 -65.875 16.6875 Z M4 14 C5.98 17.96 7.96 21.92 10 26 C12.97 26 15.94 26 19 26 C15.03290556 21.06532155 11.35477823 17.39822465 6 14 C5.34 14 4.68 14 4 14 Z M-82.7265625 36.203125 C-87.74666965 43.28671178 -88.81906698 52.63505777 -90 61 C-84.72 61 -79.44 61 -74 61 C-73.79503906 59.62585938 -73.59007812 58.25171875 -73.37890625 56.8359375 C-73.10679709 55.01562107 -72.83466022 53.19530879 -72.5625 51.375 C-72.42779297 50.47136719 -72.29308594 49.56773437 -72.15429688 48.63671875 C-71.47310556 44.08436703 -70.77632452 39.53735301 -70 35 C-71.77007714 34.91885894 -73.54122098 34.86074495 -75.3125 34.8125 C-76.29863281 34.77769531 -77.28476563 34.74289063 -78.30078125 34.70703125 C-80.9774228 34.77913715 -80.9774228 34.77913715 -82.7265625 36.203125 Z M-61 37 C-63.34611139 45.14238658 -63.41548454 52.23226816 -64 61 C-53.77 61 -43.54 61 -33 61 C-33 52.42 -33 43.84 -33 35 C-37.24875 34.95875 -41.4975 34.9175 -45.875 34.875 C-47.2141748 34.85679199 -48.55334961 34.83858398 -49.93310547 34.81982422 C-50.98385254 34.8148291 -52.03459961 34.80983398 -53.1171875 34.8046875 C-54.19597168 34.79421387 -55.27475586 34.78374023 -56.38623047 34.77294922 C-59.16044022 34.73160023 -59.16044022 34.73160023 -61 37 Z M14 35 C14.79051361 40.65639348 15.66602679 46.29701068 16.5625 51.9375 C16.70107422 52.81212891 16.83964844 53.68675781 16.98242188 54.58789062 C17.32114261 56.72533526 17.66050532 58.86267815 18 61 C22.95 61 27.9 61 33 61 C32.54708541 52.28139416 31.59211656 41.5024279 25 35 C22.2613775 34.51659568 22.2613775 34.51659568 19.3125 34.75 C18.31863281 34.78609375 17.32476562 34.8221875 16.30078125 34.859375 C15.54152344 34.90578125 14.78226562 34.9521875 14 35 Z M-90 70 C-89.22543725 79.60457806 -87.16628765 87.8051989 -82 96 C-78.04 96 -74.08 96 -70 96 C-70.28875 94.30875 -70.5775 92.6175 -70.875 90.875 C-72.03488782 83.9322429 -73.02408457 76.97082448 -74 70 C-79.28 70 -84.56 70 -90 70 Z M-64 70 C-63.896875 72.43375 -63.79375 74.8675 -63.6875 77.375 C-63.66260498 78.11927246 -63.63770996 78.86354492 -63.61206055 79.63037109 C-63.28738551 85.75574876 -61.88038739 89.73204203 -60 96 C-51.09 96 -42.18 96 -33 96 C-33 87.42 -33 78.84 -33 70 C-43.23 70 -53.46 70 -64 70 Z M-75 105 C-72.84480962 109.08841764 -70.46905114 111.51072705 -66.8125 114.3125 C-65.91144531 115.00988281 -65.01039063 115.70726562 -64.08203125 116.42578125 C-63.39496094 116.94527344 -62.70789063 117.46476562 -62 118 C-61.34 117.67 -60.68 117.34 -60 117 C-62.97 111.06 -62.97 111.06 -66 105 C-68.97 105 -71.94 105 -75 105 Z M-56 105 C-52.89400041 111.54781971 -52.89400041 111.54781971 -48.875 117 C-48.12863281 117.86625 -48.12863281 117.86625 -47.3671875 118.75 C-46.06273794 120.22492307 -46.06273794 120.22492307 -44 120 C-44 120.66 -44 121.32 -44 122 C-42.35538655 122.83573823 -40.70927487 123.66852882 -39.0625 124.5 C-37.68771484 125.19609375 -37.68771484 125.19609375 -36.28515625 125.90625 C-34.27190308 127.07195471 -34.27190308 127.07195471 -33 127 C-33 119.74 -33 112.48 -33 105 C-40.59 105 -48.18 105 -56 105 Z " fill="#F2F2F2" transform="translate(275,181)"/>
<path d="M0 0 C2.78108192 -0.46351365 4.31409463 -0.68029498 7 0 C9.34597786 1.88267882 11.2927155 3.91546108 13.30078125 6.15234375 C14.87807309 8.08721117 14.87807309 8.08721117 17 9 C17 9.66 17 10.32 17 11 C17.66 11 18.32 11 19 11 C20.625 12.375 20.625 12.375 22 14 C22 14.66 22 15.32 22 16 C22.66 16 23.32 16 24 16 C24 16.66 24 17.32 24 18 C24.58555664 18.26409668 25.17111328 18.52819336 25.77441406 18.80029297 C28.08756403 20.04720158 29.70574889 21.39163445 31.609375 23.1953125 C32.27839844 23.8251001 32.94742188 24.4548877 33.63671875 25.10375977 C34.33410156 25.77076904 35.03148437 26.43777832 35.75 27.125 C36.46285156 27.80425537 37.17570312 28.48351074 37.91015625 29.18334961 C39.31364819 30.52285694 40.71539816 31.86419229 42.11523438 33.20751953 C43.66455261 34.68097737 45.24259662 36.12417235 46.828125 37.55859375 C51.8709606 42.21142588 51.8709606 42.21142588 52.5625 46.4375 C52 49 52 49 51 50 C48.46950598 50.07313567 45.96695163 50.09247527 43.4375 50.0625 C42.72658203 50.05798828 42.01566406 50.05347656 41.28320312 50.04882812 C39.52209987 50.03700864 37.76103964 50.01907263 36 50 C36.5053125 51.01320313 37.010625 52.02640625 37.53125 53.0703125 C38.18811444 54.42157649 38.84433029 55.77315589 39.5 57.125 C39.83386719 57.79015625 40.16773438 58.4553125 40.51171875 59.140625 C42.47191985 63.22104362 43.61021052 66.36794743 43 71 C41 72.625 41 72.625 38 74 C37.38382812 74.35191406 36.76765625 74.70382812 36.1328125 75.06640625 C31.68947076 77.54741613 28.19719039 78.91715125 23 78 C21.375 76.125 21.375 76.125 20 73 C19.10924274 71.22660789 18.2130297 69.45594969 17.3125 67.6875 C16.53971164 66.125966 15.76822734 64.56378292 15 63 C11.53785021 63 9.52872296 66.22391707 7.16796875 68.56640625 C5 70 5 70 2.30078125 69.77734375 C0 69 0 69 -1 68 C-1.09939492 65.95516624 -1.12799552 63.90686668 -1.12939453 61.85961914 C-1.13254669 60.54478043 -1.13569885 59.22994171 -1.13894653 57.8752594 C-1.13715657 56.42855801 -1.13510557 54.98185693 -1.1328125 53.53515625 C-1.13348564 52.06164026 -1.13445575 50.58812437 -1.13571167 49.11460876 C-1.13718863 46.021789 -1.13503445 42.92899806 -1.13037109 39.83618164 C-1.12467878 35.86691265 -1.12794965 31.89771135 -1.13394356 27.92844486 C-1.13755347 24.88390084 -1.13640851 21.83937292 -1.13381577 18.79482841 C-1.13314743 17.33116078 -1.13397167 15.8674917 -1.13629532 14.40382576 C-1.13882828 12.35914258 -1.13428467 10.31445429 -1.12939453 8.26977539 C-1.12859894 7.10474991 -1.12780334 5.93972443 -1.12698364 4.73939514 C-1 2 -1 2 0 0 Z M8 15 C8 27.87 8 40.74 8 54 C8.33 53.34 8.66 52.68 9 52 C10.485 51.505 10.485 51.505 12 51 C12 50.34 12 49.68 12 49 C14.25 48.25 14.25 48.25 17 48 C21.2169865 51.19674783 22.79709525 55.50603395 24.75 60.25 C25.06582031 60.99507813 25.38164062 61.74015625 25.70703125 62.5078125 C26.48002817 64.33489612 27.24121095 66.16697027 28 68 C29.32 67.34 30.64 66.68 32 66 C30.16670012 60.69513225 28.36930506 55.50561804 25.6875 50.5625 C24 47 24 47 24.33203125 44.83984375 C25 43 25 43 26 42 C27.51469448 41.76807135 29.03754562 41.58784762 30.5625 41.4375 C31.80193359 41.31181641 31.80193359 41.31181641 33.06640625 41.18359375 C33.70449219 41.12300781 34.34257812 41.06242187 35 41 C30.71679116 35.6153946 25.9137305 31.04803975 20.83813477 26.43164062 C17.73239915 23.60572118 14.69287299 20.74770914 11.75 17.75 C10.8425 16.8425 9.935 15.935 9 15 C8.67 15 8.34 15 8 15 Z " fill="#F9F9F9" transform="translate(275,249)"/>
<path d="M0 0 C5.76813453 4.89037493 11.43519292 9.87906232 17 15 C17.94488281 15.85464844 18.88976562 16.70929688 19.86328125 17.58984375 C20.77464844 18.44707031 21.68601562 19.30429687 22.625 20.1875 C23.46289062 20.96480469 24.30078125 21.74210937 25.1640625 22.54296875 C27.43748459 25.58548469 27.45189375 27.28501304 27 31 C26 32 26 32 22.62109375 32.09765625 C21.22652923 32.09098369 19.83198257 32.07902532 18.4375 32.0625 C17.72658203 32.05798828 17.01566406 32.05347656 16.28320312 32.04882812 C14.52209987 32.03700864 12.76103964 32.01907263 11 32 C11.5053125 33.01320313 12.010625 34.02640625 12.53125 35.0703125 C13.18811444 36.42157649 13.84433029 37.77315589 14.5 39.125 C15.00080078 40.12273437 15.00080078 40.12273437 15.51171875 41.140625 C17.46838948 45.21369468 18.64070171 48.37730272 18 53 C15.39330648 55.04308411 13.13660747 55.95446418 10 57 C10 55.02 10 53.04 10 51 C9.01 51.99 8.02 52.98 7 54 C7 53.34 7 52.68 7 52 C5.68 51.67 4.36 51.34 3 51 C3.99 49.68 4.98 48.36 6 47 C5.67386719 46.28714844 5.34773438 45.57429688 5.01171875 44.83984375 C4.10900158 42.86132205 3.21074483 40.88076061 2.31640625 38.8984375 C1.54892545 37.2086133 0.77043875 35.52355212 -0.03515625 33.8515625 C-1.21657112 31.33487409 -2.04010757 29.49466001 -1.8125 26.6875 C-1 25 -1 25 1 23 C3.65537372 22.43479997 6.29144713 22.26211802 9 22 C3.86877855 16.74595676 -1.4069024 11.76008307 -7 7 C-6.34 6.67 -5.68 6.34 -5 6 C-3.31791365 6.97383946 -1.65261839 7.97695052 0 9 C2.19130534 9.69579454 2.19130534 9.69579454 4 10 C4 8.68 4 7.36 4 6 C2.68 5.34 1.36 4.68 0 4 C0 2.68 0 1.36 0 0 Z " fill="#EAEAEA" transform="translate(300,267)"/>
<path d="M0 0 C7.99703091 2.09758188 13.52801299 5.94471566 20 11 C20.76699219 11.53625 21.53398437 12.0725 22.32421875 12.625 C22.87722656 13.07875 23.43023437 13.5325 24 14 C24 14.66 24 15.32 24 16 C24.66 16 25.32 16 26 16 C26.33 16.99 26.66 17.98 27 19 C26.34 19.33 25.68 19.66 25 20 C22.375 18.5625 22.375 18.5625 20 17 C20 21.27053927 22.30125972 22.82898018 25 26 C25 26.66 25 27.32 25 28 C22.9160597 27.88556397 20.83283507 27.75804453 18.75 27.625 C17.58984375 27.55539063 16.4296875 27.48578125 15.234375 27.4140625 C12.21941485 27.02808934 10.45774344 26.73650947 8 25 C6.69140625 23.08203125 6.69140625 23.08203125 5.5625 20.8125 C3.95054872 17.70874287 2.27509725 14.86955167 0.1875 12.0625 C-2 9 -2 9 -2 7 C1.73487777 7.4979837 3.81237635 7.87491756 7 10 C7.99 10 8.98 10 10 10 C7.47354714 5.69016865 4.50653635 4.70057975 0 3 C0 2.01 0 1.02 0 0 Z M6 14 C7.98 17.96 9.96 21.92 12 26 C14.97 26 17.94 26 21 26 C17.03290556 21.06532155 13.35477823 17.39822465 8 14 C7.34 14 6.68 14 6 14 Z " fill="#DEDEDE" transform="translate(273,181)"/>
<path d="M0 0 C2.28444763 0.91377905 3.72089337 1.61806461 5.1875 3.625 C6.35422988 7.03544118 6.58917644 10.41996613 7 14 C7.33 14.33 7.66 14.66 8 15 C8.07226502 16.85287502 8.0838122 18.70833878 8.0625 20.5625 C8.05347656 21.57441406 8.04445313 22.58632812 8.03515625 23.62890625 C8.02355469 24.41136719 8.01195312 25.19382813 8 26 C8.66 26 9.32 26 10 26 C10.2868123 15.31753764 10.2868123 15.31753764 8 5 C7.875 2.0625 7.875 2.0625 8 0 C8.99 0 9.98 0 11 0 C13.66093939 8.55301946 15.33882491 17.02113999 15 26 C19.62 26 24.24 26 29 26 C29 26.33 29 26.66 29 27 C24.38 27.33 19.76 27.66 15 28 C14.89459074 30.21081851 14.89459074 30.21081851 16 33 C20.29 33.33 24.58 33.66 29 34 C29 34.33 29 34.66 29 35 C13.08276674 36.03184945 13.08276674 36.03184945 8.625 32.5 C5.58093087 29.09222391 4.60020175 25.44727803 4 21 C3.84144531 19.97003906 3.68289063 18.94007813 3.51953125 17.87890625 C3.17455903 15.6352899 2.83725328 13.3904807 2.5078125 11.14453125 C1.89446268 7.34648046 1.01782228 3.70778117 0 0 Z " fill="#D4D4D3" transform="translate(278,216)"/>
<path d="M0 0 C11.07270213 10.43997629 17.8002093 25.43650119 18.3984375 40.71875 C18.40626057 42.64583329 18.39840434 44.57304296 18.375 46.5 C18.38660156 47.45519531 18.39820313 48.41039062 18.41015625 49.39453125 C18.38201405 56.32689412 17.11661435 62.41069186 15 69 C13.140625 69.58203125 13.140625 69.58203125 11 70 C8.75 68.6875 8.75 68.6875 7 66 C6.21063664 60.36856628 6.78569182 55.25898192 9 50 C9.66 50 10.32 50 11 50 C11 52.97 11 55.94 11 59 C10.34 59 9.68 59 9 59 C9 60.98 9 62.96 9 65 C9.66 65 10.32 65 11 65 C11 65.66 11 66.32 11 67 C11.66 67 12.32 67 13 67 C13.06058594 66.07316406 13.12117188 65.14632812 13.18359375 64.19140625 C13.26738281 62.99386719 13.35117187 61.79632813 13.4375 60.5625 C13.51871094 59.36753906 13.59992188 58.17257812 13.68359375 56.94140625 C14 54 14 54 15 53 C15.55539669 45.35512787 14.66805121 37.61101204 14 30 C13.67 30 13.34 30 13 30 C12.49440092 28.56445975 11.9957251 27.1264798 11.5 25.6875 C11.2215625 24.88699219 10.943125 24.08648437 10.65625 23.26171875 C10 21 10 21 10 18 C9.34 18 8.68 18 8 18 C7.773125 17.34 7.54625 16.68 7.3125 16 C6.18405503 13.42069721 4.97098368 11.34011383 3.4375 9 C1.5131269 6.01156177 0.33800332 3.60536879 0 0 Z " fill="#9D9D9D" transform="translate(300,200)"/>
<path d="M0 0 C0.33 7.92 0.66 15.84 1 24 C1.66 24 2.32 24 3 24 C2.67 25.65 2.34 27.3 2 29 C-0.62506802 29.02690844 -3.24986173 29.04679404 -5.875 29.0625 C-6.62136719 29.07087891 -7.36773437 29.07925781 -8.13671875 29.08789062 C-13.7734375 29.11328125 -13.7734375 29.11328125 -16 28 C-16.59355614 25.35139573 -16.74209269 22.70802678 -17 20 C-17.66 20 -18.32 20 -19 20 C-19.13277344 19.21753906 -19.26554688 18.43507813 -19.40234375 17.62890625 C-19.57894531 16.61699219 -19.75554687 15.60507812 -19.9375 14.5625 C-20.11152344 13.55316406 -20.28554687 12.54382813 -20.46484375 11.50390625 C-20.74751097 9.0712562 -20.74751097 9.0712562 -22 8 C-22.14115161 5.32941149 -22.04247107 2.67567762 -22 0 C-19.08365878 -0.19502282 -16.16720455 -0.38129328 -13.25 -0.5625 C-12.0125 -0.64661133 -12.0125 -0.64661133 -10.75 -0.73242188 C-9.95078125 -0.78076172 -9.1515625 -0.82910156 -8.328125 -0.87890625 C-7.5949707 -0.9260376 -6.86181641 -0.97316895 -6.10644531 -1.02172852 C-4 -1 -4 -1 0 0 Z M-20 1 C-19.22543725 10.60457806 -17.16628765 18.8051989 -12 27 C-8.04 27 -4.08 27 0 27 C-0.28875 25.30875 -0.5775 23.6175 -0.875 21.875 C-2.03488782 14.9322429 -3.02408457 7.97082448 -4 1 C-9.28 1 -14.56 1 -20 1 Z " fill="#CECECE" transform="translate(205,250)"/>
<path d="M0 0 C-1.38877354 3.35620271 -2.91677965 5.07298728 -6 7 C-6.66 7 -7.32 7 -8 7 C-8.165 7.680625 -8.33 8.36125 -8.5 9.0625 C-10.39597281 12.77544675 -12.92143359 14.74866479 -16.125 17.3515625 C-18.22049915 19.05056095 -18.22049915 19.05056095 -20 22 C-20.99 22 -21.98 22 -23 22 C-23.0825 22.825 -23.165 23.65 -23.25 24.5 C-24.02009296 28.09376717 -25.26206207 30.64658546 -26.953125 33.86328125 C-29.38597791 38.82884298 -30.82531578 44.12927779 -32.0625 49.5 C-32.371875 50.655 -32.68125 51.81 -33 53 C-33.99 53.495 -33.99 53.495 -35 54 C-33.97898766 38.94006792 -28.13923538 24.32214618 -18 13 C-17.34 13 -16.68 13 -16 13 C-15.690625 12.15695313 -15.690625 12.15695313 -15.375 11.296875 C-13.50658056 8.17576526 -10.89614055 6.34696969 -8 4.25 C-7.18015625 3.63318359 -7.18015625 3.63318359 -6.34375 3.00390625 C-2.27200997 0 -2.27200997 0 0 0 Z " fill="#979797" transform="translate(211,186)"/>
<path d="M0 0 C0.33 0 0.66 0 1 0 C1.08564209 0.60996826 1.17128418 1.21993652 1.25952148 1.84838867 C1.65069064 4.62830451 2.04407444 7.40790264 2.4375 10.1875 C2.57220703 11.14720703 2.70691406 12.10691406 2.84570312 13.09570312 C2.97783203 14.02705078 3.10996094 14.95839844 3.24609375 15.91796875 C3.36654053 16.77156982 3.4869873 17.6251709 3.61108398 18.50463867 C4.00238695 21.01531514 4.50167147 23.50835736 5 26 C13.91 26 22.82 26 32 26 C32 17.75 32 9.5 32 1 C32.33 1 32.66 1 33 1 C33 9.58 33 18.16 33 27 C28.76389041 27.04587844 24.52864043 27.08571186 20.29248047 27.10986328 C18.85104453 27.11992963 17.40962905 27.1335838 15.96826172 27.15087891 C13.89806066 27.17510012 11.82812924 27.18647641 9.7578125 27.1953125 C7.88826904 27.21102295 7.88826904 27.21102295 5.98095703 27.22705078 C3 27 3 27 1 25 C-0.66439762 17.17116675 -2.59043652 7.77130955 0 0 Z " fill="#747474" transform="translate(210,251)"/>
<path d="M0 0 C1.65 0 3.3 0 5 0 C4.38382813 0.97324219 3.76765625 1.94648438 3.1328125 2.94921875 C0.76933858 7.08373635 -0.19997298 11.17529933 -1.125 15.8125 C-2.74840595 23.74840595 -2.74840595 23.74840595 -5 26 C-6.37792546 23.24414908 -6.0585294 21.00663529 -6 17.9375 C-5.96235323 15.95869142 -5.95337573 13.97861741 -6 12 C-6.33 11.67 -6.66 11.34 -7 11 C-7.3125 8.625 -7.3125 8.625 -7 6 C-5.1875 4.1875 -5.1875 4.1875 -3 3 C-2.01 3 -1.02 3 0 3 C0 2.01 0 1.02 0 0 Z " fill="#E0E0E0" transform="translate(189,216)"/>
<path d="M0 0 C3 2 3 2 3.6875 5.125 C3.790625 6.07375 3.89375 7.0225 4 8 C4.66 8 5.32 8 6 8 C6.33 9.65 6.66 11.3 7 13 C7.66 13 8.32 13 9 13 C9.33 14.32 9.66 15.64 10 17 C10.66 17 11.32 17 12 17 C12.33 18.32 12.66 19.64 13 21 C9.44219804 20.39009109 6.3171411 19.4216319 3 18 C3 17.34 3 16.68 3 16 C2.195625 15.731875 1.39125 15.46375 0.5625 15.1875 C-0.283125 14.795625 -1.12875 14.40375 -2 14 C-2.33 13.01 -2.66 12.02 -3 11 C-3.66 10.67 -4.32 10.34 -5 10 C-4.01 9.67 -3.02 9.34 -2 9 C1.1875 10.9375 1.1875 10.9375 4 13 C3.44119141 12.09507812 3.44119141 12.09507812 2.87109375 11.171875 C2.16146484 9.97304688 2.16146484 9.97304688 1.4375 8.75 C0.72400391 7.56664062 0.72400391 7.56664062 -0.00390625 6.359375 C-1.13022151 3.69155375 -1.0169313 2.65498232 0 0 Z " fill="#DEDEDE" transform="translate(210,285)"/>
<path d="M0 0 C0.99 0.33 1.98 0.66 3 1 C2.70351562 1.61230469 2.40703125 2.22460938 2.1015625 2.85546875 C0.55843626 7.26049224 0.01403987 11.70196499 -0.625 16.3125 C-1.07875 19.509375 -1.5325 22.70625 -2 26 C8.23 26 18.46 26 29 26 C29 26.33 29 26.66 29 27 C24.3188055 27.16725324 19.63744899 27.32784864 14.95581055 27.48217773 C13.36199744 27.53566794 11.76824515 27.59100255 10.17456055 27.64819336 C7.88864258 27.72990942 5.60259054 27.80506897 3.31640625 27.87890625 C2.59973282 27.90594131 1.88305939 27.93297638 1.14466858 27.96083069 C-0.56947767 28.01297644 -2.28510176 28.01185628 -4 28 C-5 27 -5 27 -5.1328125 24.75 C-5.13023437 23.8425 -5.12765625 22.935 -5.125 22 C-5.12757813 21.0925 -5.13015625 20.185 -5.1328125 19.25 C-5 17 -5 17 -4 16 C-3.76807135 14.48530552 -3.58784762 12.96245438 -3.4375 11.4375 C-3.35371094 10.61121094 -3.26992187 9.78492188 -3.18359375 8.93359375 C-3.12300781 8.29550781 -3.06242188 7.65742188 -3 7 C-2.34 7 -1.68 7 -1 7 C-1.020625 6.030625 -1.04125 5.06125 -1.0625 4.0625 C-1 1 -1 1 0 0 Z " fill="#9A9A9A" transform="translate(213,216)"/>
<path d="M0 0 C0.99 0 1.98 0 3 0 C5.66093939 8.55301946 7.33882491 17.02113999 7 26 C11.62 26 16.24 26 21 26 C21 26.33 21 26.66 21 27 C15.72 27 10.44 27 5 27 C3.4193032 23.04825801 2.7544777 21.10757594 2.5 17.125 C2.15225796 12.86990199 1.20632439 9.10150294 0 5 C-0.125 2.0625 -0.125 2.0625 0 0 Z " fill="#A3A3A3" transform="translate(286,216)"/>
<path d="M0 0 C0.33 0 0.66 0 1 0 C1 21.45 1 42.9 1 65 C2.98 64.34 4.96 63.68 7 63 C8.66088045 62.63893903 10.32618981 62.29537827 12 62 C8.72110553 66.7361809 8.72110553 66.7361809 5.4375 67.9375 C3 68 3 68 0 66 C-0.36076355 63.25387573 -0.36076355 63.25387573 -0.34057617 59.71435547 C-0.34101425 59.07032776 -0.34145233 58.42630005 -0.34190369 57.76275635 C-0.33981094 55.63059336 -0.31645865 53.49921338 -0.29296875 51.3671875 C-0.28737448 49.89031402 -0.28310359 48.41343498 -0.28010559 46.93655396 C-0.26864335 43.04673937 -0.23916473 39.1572601 -0.20599365 35.26757812 C-0.17532222 31.29952531 -0.16160655 27.3314184 -0.14648438 23.36328125 C-0.11429599 15.57536786 -0.06308345 7.78773089 0 0 Z " fill="#8E8E8E" transform="translate(274,251)"/>
<path d="M0 0 C-0.68707031 0.54269531 -1.37414062 1.08539063 -2.08203125 1.64453125 C-2.98308594 2.35996094 -3.88414062 3.07539063 -4.8125 3.8125 C-5.70582031 4.52019531 -6.59914062 5.22789062 -7.51953125 5.95703125 C-9.47076911 7.56411377 -11.26274976 9.17040423 -13 11 C-10.36 11.33 -7.72 11.66 -5 12 C-4.62875 10.700625 -4.62875 10.700625 -4.25 9.375 C-2.93221387 5.81697746 -1.19813178 3.0773845 1 0 C2 2 2 2 1.29296875 4.34765625 C0.92816406 5.24355469 0.56335938 6.13945312 0.1875 7.0625 C-0.16957031 7.96097656 -0.52664062 8.85945312 -0.89453125 9.78515625 C-2 12 -2 12 -4 13 C-6.37123246 13.23029956 -8.74741943 13.41119942 -11.125 13.5625 C-12.40632812 13.64628906 -13.68765625 13.73007813 -15.0078125 13.81640625 C-15.99523437 13.87699219 -16.98265625 13.93757812 -18 14 C-16.40733964 9.61281058 -14.54265126 7.09981985 -11 4 C-10.34 4 -9.68 4 -9 4 C-9 3.34 -9 2.68 -9 2 C-3.375 -1.125 -3.375 -1.125 0 0 Z " fill="#C3C3C3" transform="translate(214,195)"/>
<path d="M0 0 C5.3063939 0.41618776 8.29736931 1.10249401 12 5 C14.84729464 9.41536994 17.24092833 14.04261621 19 19 C16.39048764 20.30475618 14.47298715 20.11301572 11.5546875 20.09765625 C9.94013672 20.09282227 9.94013672 20.09282227 8.29296875 20.08789062 C7.16503906 20.07951172 6.03710938 20.07113281 4.875 20.0625 C3.73933594 20.05798828 2.60367187 20.05347656 1.43359375 20.04882812 C-1.37765638 20.03701615 -4.1888023 20.02054507 -7 20 C-7 19.67 -7 19.34 -7 19 C0.59 19 8.18 19 16 19 C11.90346946 12.14458154 8.35124828 6.80952046 2 2 C1.34 1.34 0.68 0.68 0 0 Z " fill="#888888" transform="translate(258,188)"/>
<path d="M0 0 C4.90866686 1.22716672 7.55618549 3.37401898 11 7 C12.4375 9.875 12.4375 9.875 13 12 C12.01 12 11.02 12 10 12 C7.69 9.69 5.38 7.38 3 5 C2.67 17.21 2.34 29.42 2 42 C1.67 42 1.34 42 1 42 C0.505 21.21 0.505 21.21 0 0 Z " fill="#BCBCBD" transform="translate(281,260)"/>
<path d="M0 0 C0.66 0.33 1.32 0.66 2 1 C2.37400786 3.32716 2.70764733 5.66117862 3 8 C3.33 8.33 3.66 8.66 4 9 C4.27412043 10.47488712 4.51876505 11.95528395 4.75 13.4375 C5.6836909 18.47508811 7.54933343 22.44009782 10.07421875 26.87109375 C11 29 11 29 10 32 C3.35804368 24.88361823 -0.64864949 12.90013361 -1.140625 3.23828125 C-1 1 -1 1 0 0 Z " fill="#A9A9A9" transform="translate(177,253)"/>
<path d="M0 0 C3.66987974 3.38227161 6.29927079 7.54198201 9.16015625 11.6015625 C10.77621238 14.07038884 10.77621238 14.07038884 13 15 C13 15.66 13 16.32 13 17 C13.78375 17.28875 14.5675 17.5775 15.375 17.875 C18 19 18 19 20 21 C19.34 21.66 18.68 22.32 18 23 C13.10938631 20.14815331 8.69178347 17.38399287 5 13 C5 12.01 5 11.02 5 10 C4.01 9.67 3.02 9.34 2 9 C-0.04108797 5.99208089 -0.19878036 3.57804656 0 0 Z " fill="#BABABA" transform="translate(218,286)"/>
<path d="M0 0 C1.65 0 3.3 0 5 0 C5.33 0.99 5.66 1.98 6 3 C6.66 3 7.32 3 8 3 C8 4.32 8 5.64 8 7 C3.38 7 -1.24 7 -6 7 C-6.33 8.65 -6.66 10.3 -7 12 C-7.66 11.34 -8.32 10.68 -9 10 C-8.63318342 7.06546739 -8.13562754 6.13562754 -6 4 C-3.34462628 3.43479997 -0.70855287 3.26211802 2 3 C1.34 2.01 0.68 1.02 0 0 Z " fill="#D9D9D9" transform="translate(307,286)"/>
<path d="M0 0 C5.53846154 0.61538462 5.53846154 0.61538462 7.875 2.5625 C8.431875 3.2740625 8.431875 3.2740625 9 4 C8.01 4.33 7.02 4.66 6 5 C6 5.66 6 6.32 6 7 C6.99 7.33 7.98 7.66 9 8 C10.38671875 10.28515625 10.38671875 10.28515625 11.6875 13.0625 C12.34298828 14.44115234 12.34298828 14.44115234 13.01171875 15.84765625 C13.33785156 16.55792969 13.66398437 17.26820313 14 18 C13.01 18.33 12.02 18.66 11 19 C10.62488281 18.35933594 10.24976563 17.71867187 9.86328125 17.05859375 C7.41866811 12.92676651 4.97712084 8.86548182 2.125 5 C0 2 0 2 0 0 Z " fill="#DBDCDC" transform="translate(271,188)"/>
<path d="M0 0 C7.37653219 0.75015582 14.67831776 1.83441535 22 3 C22 3.99 22 4.98 22 6 C28.27 6 34.54 6 41 6 C41 6.33 41 6.66 41 7 C26.17651703 7.5568712 13.83218465 6.72900185 0 1 C0 0.67 0 0.34 0 0 Z " fill="#8D8D8C" transform="translate(217,311)"/>
<path d="M0 0 C1.12588014 0.95729916 2.2506715 1.91587895 3.375 2.875 C4.00148438 3.40867187 4.62796875 3.94234375 5.2734375 4.4921875 C6.55836651 5.61432007 7.79371975 6.79371975 9 8 C9.1875 11.0625 9.1875 11.0625 9 14 C8 15 8 15 4.62109375 15.09765625 C3.22652923 15.09098369 1.83198257 15.07902532 0.4375 15.0625 C-0.27341797 15.05798828 -0.98433594 15.05347656 -1.71679688 15.04882812 C-3.47790013 15.03700864 -5.23896036 15.01907263 -7 15 C-7.33 15.66 -7.66 16.32 -8 17 C-8.66 16.67 -9.32 16.34 -10 16 C-9.67 15.01 -9.34 14.02 -9 13 C-4.05 13 0.9 13 6 13 C4.13458313 7.05979244 4.13458313 7.05979244 0 4 C0 2.68 0 1.36 0 0 Z " fill="#C0C0C0" transform="translate(318,284)"/>
<path d="M0 0 C2.475 0.99 2.475 0.99 5 2 C5.33 4.64 5.66 7.28 6 10 C9.3 10 12.6 10 16 10 C16.33 10.66 16.66 11.32 17 12 C13.35713096 14.33143618 10.25281824 14.54126778 6 14 C4.25 11.875 4.25 11.875 3 9 C2.1646875 7.453125 2.1646875 7.453125 1.3125 5.875 C0 3 0 3 0 0 Z " fill="#A7A7A7" transform="translate(292,313)"/>
<path d="M0 0 C2.28444763 0.91377905 3.72089337 1.61806461 5.1875 3.625 C7.21587748 9.55410341 8.7746262 19.27392563 5.9855957 25.12988281 C5.66034912 25.74702148 5.33510254 26.36416016 5 27 C4.80664062 25.72125 4.61328125 24.4425 4.4140625 23.125 C4.15123735 21.41663655 3.88820549 19.70830489 3.625 18 C3.49867188 17.16082031 3.37234375 16.32164062 3.2421875 15.45703125 C2.42882079 10.21081598 1.36582004 5.13073268 0 0 Z " fill="#9F9F9D" transform="translate(278,216)"/>
<path d="M0 0 C2.78108192 -0.46351365 4.31409463 -0.68029498 7 0 C9.34597786 1.88267882 11.2927155 3.91546108 13.30078125 6.15234375 C14.87807309 8.08721117 14.87807309 8.08721117 17 9 C17 9.66 17 10.32 17 11 C17.66 11 18.32 11 19 11 C20.625 12.375 20.625 12.375 22 14 C22 14.66 22 15.32 22 16 C22.66 16 23.32 16 24 16 C23.67 16.66 23.34 17.32 23 18 C21.68 17.34 20.36 16.68 19 16 C19 15.34 19 14.68 19 14 C18.44828125 13.7628125 17.8965625 13.525625 17.328125 13.28125 C14.43225289 11.68754857 12.20487963 9.71082727 9.75 7.5 C8.85796875 6.7059375 7.9659375 5.911875 7.046875 5.09375 C5 3 5 3 5 1 C3.35 1 1.7 1 0 1 C0 0.67 0 0.34 0 0 Z " fill="#ABABAB" transform="translate(275,249)"/>
<path d="M0 0 C0.33 0.99 0.66 1.98 1 3 C1.66 3 2.32 3 3 3 C3 4.98 3 6.96 3 9 C3.66 9 4.32 9 5 9 C4.67 10.65 4.34 12.3 4 14 C1.37493198 14.02690844 -1.24986173 14.04679404 -3.875 14.0625 C-4.62136719 14.07087891 -5.36773437 14.07925781 -6.13671875 14.08789062 C-11.7734375 14.11328125 -11.7734375 14.11328125 -14 13 C-14.625 10.4375 -14.625 10.4375 -15 8 C-13.0625 8.3125 -13.0625 8.3125 -11 9 C-10.67 9.99 -10.34 10.98 -10 12 C-6.04 12 -2.08 12 2 12 C1.67 11.13375 1.34 10.2675 1 9.375 C0.01268659 6.04281725 -0.16420974 3.44840462 0 0 Z " fill="#BFBFBF" transform="translate(203,265)"/>
<path d="M0 0 C1.98 0.495 1.98 0.495 4 1 C4 1.66 4 2.32 4 3 C4.556875 3.20625 5.11375 3.4125 5.6875 3.625 C8.97012371 5.57683032 10.70673246 7.94230994 13 11 C13 11.66 13 12.32 13 13 C8.71 12.67 4.42 12.34 0 12 C0 11.67 0 11.34 0 11 C2.64 10.67 5.28 10.34 8 10 C5.03 7.36 2.06 4.72 -1 2 C-0.67 1.34 -0.34 0.68 0 0 Z " fill="#CACACA" transform="translate(285,196)"/>
<path d="M0 0 C1.32 0.66 2.64 1.32 4 2 C4 6.95 4 11.9 4 17 C3.01 16.67 2.02 16.34 1 16 C0.93941406 15.25234375 0.87882812 14.5046875 0.81640625 13.734375 C0.73261719 12.74953125 0.64882813 11.7646875 0.5625 10.75 C0.48128906 9.77546875 0.40007812 8.8009375 0.31640625 7.796875 C0.07366763 5.06094908 0.07366763 5.06094908 -0.59765625 2.703125 C-0.73042969 2.14109375 -0.86320312 1.5790625 -1 1 C-0.67 0.67 -0.34 0.34 0 0 Z " fill="#FBFBF9" transform="translate(285,226)"/>
<path d="M0 0 C0.66 0 1.32 0 2 0 C0.07289294 12.66970387 0.07289294 12.66970387 -2 18 C-4 16 -4 16 -4.08203125 13.57421875 C-3.15648901 3.66152726 -3.15648901 3.66152726 0 0 Z " fill="#C3C3C3" transform="translate(187,224)"/>
<path d="M0 0 C-1.38877354 3.35620271 -2.91677965 5.07298728 -6 7 C-6.66 7 -7.32 7 -8 7 C-8.185625 7.70125 -8.37125 8.4025 -8.5625 9.125 C-10.54820026 13.09640051 -13.53933276 15.3073418 -17 18 C-17 16.68 -17 15.36 -17 14 C-15 12.66666667 -13 11.33333333 -11 10 C-10.505 9.01 -10.01 8.02 -9.5 7 C-7.59985379 3.19970757 -4.51139489 0 0 0 Z " fill="#DCDCDB" transform="translate(211,186)"/>
<path d="M0 0 C3.68228155 4.68654015 5.24888211 8.12632403 5.75 14.125 C5.84796875 15.17945313 5.9459375 16.23390625 6.046875 17.3203125 C6 20 6 20 4 22 C3.32810344 19.08444885 2.66230692 16.16773049 2 13.25 C1.80921875 12.425 1.6184375 11.6 1.421875 10.75 C1.24140625 9.95078125 1.0609375 9.1515625 0.875 8.328125 C0.62363281 7.22839355 0.62363281 7.22839355 0.3671875 6.10644531 C0 4 0 4 0 0 Z " fill="#B8B8B8" transform="translate(304,220)"/>
<path d="M0 0 C0.33 0 0.66 0 1 0 C1.268125 1.258125 1.53625 2.51625 1.8125 3.8125 C3.0185023 9.26120106 4.49377287 14.62778989 6 20 C5.01 20 4.02 20 3 20 C3 19.01 3 18.02 3 17 C2.34 17 1.68 17 1 17 C-1.48063781 5.47835991 -1.48063781 5.47835991 0 0 Z " fill="#ADADAD" transform="translate(185,253)"/>
<path d="M0 0 C6.19240462 0.68804496 12.01955594 2.28048715 18 4 C17.67 4.66 17.34 5.32 17 6 C14.4375 6.625 14.4375 6.625 12 7 C12 6.34 12 5.68 12 5 C11.319375 4.87625 10.63875 4.7525 9.9375 4.625 C6.5722588 3.90899123 3.29986575 2.97054875 0 2 C0 1.34 0 0.68 0 0 Z " fill="#B9B9B9" transform="translate(255,176)"/>
<path d="M0 0 C-0.33 0.99 -0.66 1.98 -1 3 C-5.96073422 4.32286246 -10.91111512 4.08893197 -16 4 C-16 3.01 -16 2.02 -16 1 C-14.08351538 0.83125293 -12.16680367 0.66508357 -10.25 0.5 C-9.18265625 0.4071875 -8.1153125 0.314375 -7.015625 0.21875 C-4.6820782 0.04947717 -2.33967818 0 0 0 Z " fill="#C5C5C5" transform="translate(267,313)"/>
<path d="M0 0 C5.82868396 5.50486819 9.3465701 9.83212627 10 18 C9.34 18 8.68 18 8 18 C7.773125 17.34 7.54625 16.68 7.3125 16 C6.18405503 13.42069721 4.97098368 11.34011383 3.4375 9 C1.5131269 6.01156177 0.33800332 3.60536879 0 0 Z " fill="#B3B3B3" transform="translate(300,200)"/>
<path d="M0 0 C3 2 3 2 3.6875 5.125 C3.790625 6.07375 3.89375 7.0225 4 8 C4.66 8 5.32 8 6 8 C6.33 9.98 6.66 11.96 7 14 C3.38430856 12.79476952 3.05330455 11.92814436 1.25 8.6875 C0.80140625 7.90761719 0.3528125 7.12773437 -0.109375 6.32421875 C-1.11611108 3.69699083 -0.97226335 2.59072612 0 0 Z " fill="#C1C1C1" transform="translate(210,285)"/>
<path d="M0 0 C0.66 0 1.32 0 2 0 C2 2.97 2 5.94 2 9 C1.34 9 0.68 9 0 9 C0 10.98 0 12.96 0 15 C-0.66 15 -1.32 15 -2 15 C-2.21755666 9.5610835 -2.10428384 5.12919186 0 0 Z " fill="#D0D0D0" transform="translate(309,250)"/>
<path d="M0 0 C3.70094304 2.25667259 4.7428343 4.64322004 6.5625 8.5625 C6.2325 9.2225 5.9025 9.8825 5.5625 10.5625 C4.9025 10.5625 4.2425 10.5625 3.5625 10.5625 C2.1018715 7.91511084 1.5625 6.66801666 1.5625 3.5625 C-0.7475 3.5625 -3.0575 3.5625 -5.4375 3.5625 C-5.4375 2.9025 -5.4375 2.2425 -5.4375 1.5625 C-2.4375 -0.4375 -2.4375 -0.4375 0 0 Z " fill="#9C9C9C" transform="translate(292.4375,296.4375)"/>
<path d="M0 0 C3.88732197 1.94366099 6.41105672 6.0276418 8 10 C8 10.99 8 11.98 8 13 C4.55137873 11.85045958 4.15804191 11.17472849 2.3125 8.1875 C1.87550781 7.50042969 1.43851562 6.81335938 0.98828125 6.10546875 C0 4 0 4 0 0 Z " fill="#D1D1D1" transform="translate(295,304)"/>
<path d="M0 0 C1 2 1 2 0.29296875 4.34765625 C-0.07183594 5.24355469 -0.43664062 6.13945312 -0.8125 7.0625 C-1.16957031 7.96097656 -1.52664062 8.85945312 -1.89453125 9.78515625 C-3 12 -3 12 -5 13 C-7.6723621 13.13415472 -10.32250488 13.04318541 -13 13 C-13 12.67 -13 12.34 -13 12 C-10.69 12 -8.38 12 -6 12 C-5.7525 11.13375 -5.505 10.2675 -5.25 9.375 C-3.93221387 5.81697746 -2.19813178 3.0773845 0 0 Z " fill="#929292" transform="translate(215,195)"/>
<path d="M0 0 C-0.33 0.99 -0.66 1.98 -1 3 C-1.99 3 -2.98 3 -4 3 C-4 3.66 -4 4.32 -4 5 C-7.20525917 7.62248477 -8.62017877 8.03113289 -12.8125 7.6875 C-14.3903125 7.3471875 -14.3903125 7.3471875 -16 7 C-16 6.67 -16 6.34 -16 6 C-15.09507812 5.72736328 -15.09507812 5.72736328 -14.171875 5.44921875 C-9.44684142 3.96311948 -4.61833639 0 0 0 Z " fill="#8E8E8E" transform="translate(267,301)"/>
<path d="M0 0 C7.83098592 1.95774648 7.83098592 1.95774648 11 5 C11 5.66 11 6.32 11 7 C12.32 7.33 13.64 7.66 15 8 C15 8.66 15 9.32 15 10 C11.13518578 8.61423779 8.03192572 6.81080359 4.6875 4.4375 C3.80449219 3.81746094 2.92148438 3.19742187 2.01171875 2.55859375 C1.34785156 2.04425781 0.68398437 1.52992188 0 1 C0 0.67 0 0.34 0 0 Z " fill="#A5A5A5" transform="translate(200,300)"/>
<path d="M0 0 C0.66 0.33 1.32 0.66 2 1 C2.37400786 3.32716 2.70764733 5.66117862 3 8 C3.33 8.33 3.66 8.66 4 9 C4.04063832 10.66617115 4.042721 12.33388095 4 14 C3.67 13.34 3.34 12.68 3 12 C2.34 12 1.68 12 1 12 C-0.41404314 8.19975907 -1.34892324 5.07077118 -1 1 C-0.67 0.67 -0.34 0.34 0 0 Z " fill="#D6D6D6" transform="translate(177,253)"/>
<path d="M0 0 C0.47727616 4.93185362 -0.98868294 9.53450707 -3 14 C-3.99 14.495 -3.99 14.495 -5 15 C-3.8907499 4.16711077 -3.8907499 4.16711077 -3 1 C-1 0 -1 0 0 0 Z " fill="#A3A3A3" transform="translate(181,225)"/>
<path d="M0 0 C-1.36983503 3.16115776 -1.9890638 3.9927092 -5 6 C-6.32 6 -7.64 6 -9 6 C-9 5.01 -9 4.02 -9 3 C-8.34 3 -7.68 3 -7 3 C-7 2.34 -7 1.68 -7 1 C-4 0 -4 0 0 0 Z " fill="#CFCFCF" transform="translate(223,188)"/>
<path d="M0 0 C3.80635497 3.20760251 7.54563567 6.40746109 11 10 C9.35 10 7.7 10 6 10 C5.7525 9.38125 5.505 8.7625 5.25 8.125 C3.79371361 5.64931313 2.62187494 5.04874998 0 4 C0 2.68 0 1.36 0 0 Z " fill="#BABABA" transform="translate(300,267)"/>
<path d="M0 0 C5.32405622 2.6734043 9.63843559 4.8845759 13 10 C12.01 10 11.02 10 10 10 C10 9.34 10 8.68 10 8 C8.35 7.67 6.7 7.34 5 7 C5 6.34 5 5.68 5 5 C4.01 4.67 3.02 4.34 2 4 C2 3.34 2 2.68 2 2 C1.34 2 0.68 2 0 2 C0 1.34 0 0.68 0 0 Z " fill="#9A9A9A" transform="translate(282,185)"/>
<path d="M0 0 C1.025046 3.07513801 0.96634496 4.26956648 0.5 7.375 C0.05380941 10.83721303 0.01304973 13.60050463 1 17 C0.01 17 -0.98 17 -2 17 C-2.05398987 14.72942623 -2.09278742 12.45848712 -2.125 10.1875 C-2.14820313 8.92292969 -2.17140625 7.65835938 -2.1953125 6.35546875 C-2 3 -2 3 0 0 Z " fill="#DEDFDD" transform="translate(178,237)"/>
<path d="M0 0 C2.0625 0.4375 2.0625 0.4375 4 1 C0.21243523 4.61139896 0.21243523 4.61139896 -2 6 C-4.875 5.8125 -4.875 5.8125 -7 5 C-7 4.34 -7 3.68 -7 3 C-5.5459375 2.5359375 -5.5459375 2.5359375 -4.0625 2.0625 C-1.15934208 1.30476658 -1.15934208 1.30476658 0 0 Z " fill="#A7A7A7" transform="translate(282,313)"/>
<path d="M0 0 C-0.33 0.99 -0.66 1.98 -1 3 C-5.76307437 3.95261487 -10.1666528 4.08333357 -15 4 C-12.3851183 2.25674553 -10.9946567 1.58412043 -8.0625 0.875 C-7.39347656 0.70742187 -6.72445312 0.53984375 -6.03515625 0.3671875 C-4 0 -4 0 0 0 Z " fill="#ACA9AA" transform="translate(239,176)"/>
<path d="M0 0 C-4.43076923 5.78461538 -4.43076923 5.78461538 -7.3125 6.875 C-7.869375 6.91625 -8.42625 6.9575 -9 7 C-9 6.34 -9 5.68 -9 5 C-8.34 5 -7.68 5 -7 5 C-7 3.68 -7 2.36 -7 1 C-4.53721199 -0.231394 -2.7204945 -0.07159196 0 0 Z " fill="#E7E7E7" transform="translate(291,300)"/>
<path d="M0 0 C1.5027237 0.97498145 3.00211963 1.95509389 4.5 2.9375 C5.75296875 3.75541016 5.75296875 3.75541016 7.03125 4.58984375 C8.00578125 5.28787109 8.00578125 5.28787109 9 6 C9 6.33 9 6.66 9 7 C5.625 6.75 5.625 6.75 2 6 C0.6875 4 0.6875 4 0 2 C-0.66 1.67 -1.32 1.34 -2 1 C-1.34 0.67 -0.68 0.34 0 0 Z " fill="#C1C2C2" transform="translate(207,294)"/>
<path d="M0 0 C1.670625 0.061875 1.670625 0.061875 3.375 0.125 C-0.25 3.125 -0.25 3.125 -3.625 3.125 C-3.955 4.775 -4.285 6.425 -4.625 8.125 C-5.285 7.465 -5.945 6.805 -6.625 6.125 C-6.05355836 1.55346689 -4.71465298 0.16257424 0 0 Z " fill="#8D8D8D" transform="translate(304.625,289.875)"/>
<path d="M0 0 C4 2 4 2 5.25 5.125 C5.4975 6.07375 5.745 7.0225 6 8 C5.34 8 4.68 8 4 8 C3.67 9.32 3.34 10.64 3 12 C2.01 8.04 1.02 4.08 0 0 Z " fill="#ACACAC" transform="translate(278,216)"/>
<path d="M0 0 C0 0.66 0 1.32 0 2 C-0.99 2 -1.98 2 -3 2 C-3 2.66 -3 3.32 -3 4 C-6.3 4.66 -9.6 5.32 -13 6 C-8.93000621 1.93000621 -5.81207933 0 0 0 Z " fill="#909090" transform="translate(224,180)"/>
<path d="M0 0 C0.33 0 0.66 0 1 0 C1 4.95 1 9.9 1 15 C2.98 15.495 2.98 15.495 5 16 C4.67 16.66 4.34 17.32 4 18 C2.68 18 1.36 18 0 18 C0 12.06 0 6.12 0 0 Z " fill="#E6E6E6" transform="translate(250,293)"/>
<path d="M0 0 C0.33 0.66 0.66 1.32 1 2 C-2.44615385 6.8 -2.44615385 6.8 -5.25 7.8125 C-6.11625 7.9053125 -6.11625 7.9053125 -7 8 C-7 8.66 -7 9.32 -7 10 C-7.66 9.67 -8.32 9.34 -9 9 C-8.67 8.34 -8.34 7.68 -8 7 C-7.34 7 -6.68 7 -6 7 C-5.7525 6.401875 -5.505 5.80375 -5.25 5.1875 C-3.83629988 2.71352479 -2.34944617 1.56629745 0 0 Z " fill="#878786" transform="translate(201,192)"/>
<path d="M0 0 C2.4375 0.625 2.4375 0.625 5 2 C5.8125 5.125 5.8125 5.125 6 8 C4.125 7.75 4.125 7.75 2 7 C0.27898465 4.41847698 0 3.15081975 0 0 Z " fill="#C3C3C3" transform="translate(292,313)"/>
<path d="M0 0 C2.86453858 3.41016497 4.34703566 6.90694544 6 11 C4.125 10.75 4.125 10.75 2 10 C-0.35535899 6.82026536 -0.17494335 3.84875379 0 0 Z " fill="#B5B5B6" transform="translate(279,196)"/>
<path d="M0 0 C2.51471866 2.51471866 3.15955106 4.56816682 4 8 C3.01 9.485 3.01 9.485 2 11 C0.68 7.7 -0.64 4.4 -2 1 C-1.34 0.67 -0.68 0.34 0 0 Z " fill="#C3C3C3" transform="translate(304,302)"/>
<path d="M0 0 C1.65 0.99 3.3 1.98 5 3 C4.01 3.99 3.02 4.98 2 6 C1.34 5.34 0.68 4.68 0 4 C-0.99 4.66 -1.98 5.32 -3 6 C-2.42655063 3.13275314 -2.1385485 2.1385485 0 0 Z " fill="#C0C0C0" transform="translate(289,307)"/>
<path d="M0 0 C2.66666667 2.66666667 5.33333333 5.33333333 8 8 C6.35 8 4.7 8 3 8 C3 7.34 3 6.68 3 6 C2.01 5.67 1.02 5.34 0 5 C0 3.35 0 1.7 0 0 Z " fill="#BDBDBD" transform="translate(199,286)"/>
<path d="M0 0 C0.33 0 0.66 0 1 0 C1.33 4.62 1.66 9.24 2 14 C1.67 12.68 1.34 11.36 1 10 C0.34 10 -0.32 10 -1 10 C-1.125 3.375 -1.125 3.375 0 0 Z " fill="#888888" transform="translate(210,251)"/>
<path d="M0 0 C3.375 0.3125 3.375 0.3125 7 1 C7.66 1.99 8.32 2.98 9 4 C8.67 4.99 8.34 5.98 8 7 C6.66382648 6.02471263 5.3311249 5.04466681 4 4.0625 C3.2575 3.51722656 2.515 2.97195312 1.75 2.41015625 C1.1725 1.94480469 0.595 1.47945312 0 1 C0 0.67 0 0.34 0 0 Z " fill="#B1B1B1" transform="translate(258,188)"/>
<path d="M0 0 C1.65 0 3.3 0 5 0 C5.33 0.99 5.66 1.98 6 3 C6.66 3 7.32 3 8 3 C8 3.66 8 4.32 8 5 C4.75791433 4.64950425 3.38472296 4.43778819 1.1875 1.9375 C0.795625 1.298125 0.40375 0.65875 0 0 Z " fill="#C6C6C6" transform="translate(307,286)"/>
<path d="M0 0 C2.31 1.98 4.62 3.96 7 6 C6.01 6.66 5.02 7.32 4 8 C2 6.25 2 6.25 0 4 C0 2.68 0 1.36 0 0 Z " fill="#A4A4A4" transform="translate(311,277)"/>
<path d="M0 0 C5.75 1.75 5.75 1.75 8 4 C8 4.99 8 5.98 8 7 C4.2047869 5.50902342 2.38957269 3.24299151 0 0 Z " fill="#929292" transform="translate(293,273)"/>
<path d="M0 0 C0.33 0.66 0.66 1.32 1 2 C1.66 2 2.32 2 3 2 C4.625 3.375 4.625 3.375 6 5 C6 5.66 6 6.32 6 7 C6.66 7 7.32 7 8 7 C7.67 7.66 7.34 8.32 7 9 C5.68 8.34 4.36 7.68 3 7 C3 6.34 3 5.68 3 5 C1.68 4.34 0.36 3.68 -1 3 C-0.67 2.01 -0.34 1.02 0 0 Z " fill="#979797" transform="translate(291,258)"/>
<path d="M0 0 C1.65 0 3.3 0 5 0 C5.33 0.99 5.66 1.98 6 3 C4.02 3.99 2.04 4.98 0 6 C0 4.02 0 2.04 0 0 Z " fill="#EDEDEB" transform="translate(275,250)"/>
<path d="M0 0 C0.66 0.33 1.32 0.66 2 1 C2.36923077 7.52307692 2.36923077 7.52307692 0.5 9.9375 C0.005 10.288125 -0.49 10.63875 -1 11 C-1.14285714 3.57142857 -1.14285714 3.57142857 0 0 Z " fill="#8C8C8C" transform="translate(202,229)"/>
<path d="M0 0 C0.66 0 1.32 0 2 0 C1.34 3.96 0.68 7.92 0 12 C-2.18879485 7.62241031 -2.08927916 6.5551674 -1 2 C-0.67 1.34 -0.34 0.68 0 0 Z " fill="#969696" transform="translate(187,224)"/>
<path d="M0 0 C2.7972908 2.06756277 3.02692273 3.14440371 3.6875 6.6875 C3.790625 7.780625 3.89375 8.87375 4 10 C1.2027092 7.93243723 0.97307727 6.85559629 0.3125 3.3125 C0.209375 2.219375 0.10625 1.12625 0 0 Z " fill="#BFC1C0" transform="translate(218,286)"/>
<path d="M0 0 C0.99 0 1.98 0 3 0 C6.22265625 5.2734375 6.22265625 5.2734375 7 7 C6.67 7.66 6.34 8.32 6 9 C4.99712471 7.68969568 3.99777175 6.37669473 3 5.0625 C2.443125 4.33160156 1.88625 3.60070312 1.3125 2.84765625 C0 1 0 1 0 0 Z " fill="#979797" transform="translate(187,285)"/>
<path d="M0 0 C0.66 0 1.32 0 2 0 C2 0.66 2 1.32 2 2 C2.99 2.33 3.98 2.66 5 3 C5 3.66 5 4.32 5 5 C5.66 5.33 6.32 5.66 7 6 C6.34 6.66 5.68 7.32 5 8 C2.5 5.6875 2.5 5.6875 0 3 C0 2.01 0 1.02 0 0 Z " fill="#C5C5C5" transform="translate(301,278)"/>
<path d="M0 0 C1.875 0.625 1.875 0.625 4 2 C5.25 5.125 5.25 5.125 6 8 C5.01 8.495 5.01 8.495 4 9 C0 2.25 0 2.25 0 0 Z " fill="#9A9A9A" transform="translate(182,276)"/>
<path d="M0 0 C1.5 1.375 1.5 1.375 3 3 C3 3.66 3 4.32 3 5 C-1.29 4.67 -5.58 4.34 -10 4 C-10 3.67 -10 3.34 -10 3 C-7.03 3 -4.06 3 -1 3 C-0.67 2.01 -0.34 1.02 0 0 Z " fill="#818181" transform="translate(295,204)"/>
<path d="M0 0 C0.99 0.66 1.98 1.32 3 2 C1.70903219 2.81360995 0.41720125 3.62585046 -0.875 4.4375 C-1.59429687 4.88996094 -2.31359375 5.34242188 -3.0546875 5.80859375 C-5 7 -5 7 -7 8 C-7 6.68 -7 5.36 -7 4 C-4.35261084 2.5393715 -3.10551666 2 0 2 C0 1.34 0 0.68 0 0 Z " fill="#A3A5A3" transform="translate(236,185)"/>
<path d="M0 0 C2.64 0.33 5.28 0.66 8 1 C8 2.32 8 3.64 8 5 C4.62496331 3.8141763 2.35277269 2.72426311 0 0 Z " fill="#BBBBBB" transform="translate(250,183)"/>
<path d="M0 0 C1.0209375 0.2165625 1.0209375 0.2165625 2.0625 0.4375 C5.36273082 1.06945909 8.67144426 1.54313941 12 2 C12 2.33 12 2.66 12 3 C8.04 3 4.08 3 0 3 C0 2.01 0 1.02 0 0 Z " fill="#E6E6E5" transform="translate(239,314)"/>
<path d="M0 0 C2.6855594 2.6855594 3.06049974 5.37621328 4 9 C2.68 8.67 1.36 8.34 0 8 C-0.79953138 4.71303767 -1.09658936 3.28976808 0 0 Z " fill="#A3A3A3" transform="translate(311,301)"/>
<path d="M0 0 C1.9375 0.125 1.9375 0.125 4 1 C5.25 3.5625 5.25 3.5625 6 6 C5.01 6 4.02 6 3 6 C0.8125 3.5 0.8125 3.5 -1 1 C-0.67 0.67 -0.34 0.34 0 0 Z " fill="#C5C5C5" transform="translate(288,266)"/>
<path d="M0 0 C0.33 0 0.66 0 1 0 C1 2.31 1 4.62 1 7 C1.66 7 2.32 7 3 7 C2.67 9.31 2.34 11.62 2 14 C0.09391902 10.78817851 -0.22266247 8.46117397 -0.125 4.75 C-0.09792969 3.41195312 -0.09792969 3.41195312 -0.0703125 2.046875 C-0.04710937 1.37140625 -0.02390625 0.6959375 0 0 Z " fill="#6C6C6C" transform="translate(201,251)"/>
<path d="M0 0 C0.33 0 0.66 0 1 0 C1.66 3.96 2.32 7.92 3 12 C2.01 11.67 1.02 11.34 0 11 C-1.125 3.375 -1.125 3.375 0 0 Z " fill="#858585" transform="translate(185,253)"/>
<path d="M0 0 C0.33 0 0.66 0 1 0 C0.67 4.29 0.34 8.58 0 13 C-2.19576787 9.7063482 -2.36287182 8.81015416 -2 5 C-1 2.1875 -1 2.1875 0 0 Z " fill="#797979" transform="translate(211,229)"/>
<path d="M0 0 C2.97 1.98 2.97 1.98 6 4 C5.67 4.99 5.34 5.98 5 7 C4.01 6.67 3.02 6.34 2 6 C2 5.34 2 4.68 2 4 C1.34 4 0.68 4 0 4 C-0.33 3.01 -0.66 2.02 -1 1 C-0.67 0.67 -0.34 0.34 0 0 Z " fill="#959595" transform="translate(195,293)"/>
<path d="M0 0 C3.24208567 0.35049575 4.61527704 0.56221181 6.8125 3.0625 C7.204375 3.701875 7.59625 4.34125 8 5 C5 5 5 5 2.3125 2.5 C1.549375 1.675 0.78625 0.85 0 0 Z " fill="#979796" transform="translate(284,244)"/>
<path d="M0 0 C0.66 0.33 1.32 0.66 2 1 C2.625 3.0625 2.625 3.0625 3 5 C1.02 5.33 -0.96 5.66 -3 6 C-1.125 1.125 -1.125 1.125 0 0 Z " fill="#DBDBDD" transform="translate(199,203)"/>
<path d="M0 0 C0.33 1.32 0.66 2.64 1 4 C-1.31 3.34 -3.62 2.68 -6 2 C-6 1.34 -6 0.68 -6 0 C-3.50907189 -1.24546405 -2.58919267 -0.7767578 0 0 Z " fill="#BDBFC0" transform="translate(283,193)"/>
<path d="M0 0 C-2 2 -2 2 -3.9453125 2.1953125 C-5.96354167 2.13020833 -7.98177083 2.06510417 -10 2 C-9.67 1.34 -9.34 0.68 -9 0 C-5.44307323 -0.85056945 -3.50729422 -1.16909807 0 0 Z " fill="#C7C7C7" transform="translate(309,324)"/>
<path d="M0 0 C0.99 0.33 1.98 0.66 3 1 C3.33 1.99 3.66 2.98 4 4 C1.69 4 -0.62 4 -3 4 C-3 3.34 -3 2.68 -3 2 C-2.01 1.34 -1.02 0.68 0 0 Z " fill="#AAAAAA" transform="translate(290,296)"/>
<path d="M0 0 C2.52588702 2.36292656 3.88820837 3.66462511 5 7 C3.68 7 2.36 7 1 7 C0.67 4.69 0.34 2.38 0 0 Z " fill="#AAAAAA" transform="translate(222,292)"/>
<path d="M0 0 C0.99 0.33 1.98 0.66 3 1 C2.5359375 2.0828125 2.5359375 2.0828125 2.0625 3.1875 C1.07439461 5.80307309 0.4712246 8.25118982 0 11 C-0.33 11 -0.66 11 -1 11 C-1.02688151 9.35425434 -1.04634123 7.70838587 -1.0625 6.0625 C-1.07410156 5.14597656 -1.08570313 4.22945312 -1.09765625 3.28515625 C-1 1 -1 1 0 0 Z " fill="#969696" transform="translate(213,216)"/>
<path d="M0 0 C0.99 0 1.98 0 3 0 C2.1875 2.4375 2.1875 2.4375 1 5 C0.01 5.33 -0.98 5.66 -2 6 C-1.125 1.125 -1.125 1.125 0 0 Z " fill="#A7A7A7" transform="translate(191,202)"/>
<path d="M0 0 C-0.5625 1.875 -0.5625 1.875 -2 4 C-5.625 5.25 -5.625 5.25 -9 6 C-3.15384615 0 -3.15384615 0 0 0 Z " fill="#929292" transform="translate(211,186)"/>
<path d="M0 0 C0 0.66 0 1.32 0 2 C-4.95 3.485 -4.95 3.485 -10 5 C-10 4.34 -10 3.68 -10 3 C-9.01 3 -8.02 3 -7 3 C-7 2.34 -7 1.68 -7 1 C-4.50935112 0.31292445 -2.62113708 0 0 0 Z " fill="#E6E6E6" transform="translate(242,183)"/>
<path d="M0 0 C2.97 0.99 5.94 1.98 9 3 C9 3.33 9 3.66 9 4 C6.03 3.67 3.06 3.34 0 3 C0 2.01 0 1.02 0 0 Z " fill="#9E9E9E" transform="translate(273,181)"/>
<path d="M0 0 C1.98 1.65 3.96 3.3 6 5 C4.125 5.625 4.125 5.625 2 6 C1.34 5.34 0.68 4.68 0 4 C0 2.68 0 1.36 0 0 Z " fill="#ABABAB" transform="translate(318,284)"/>
<path d="M0 0 C0.66 0 1.32 0 2 0 C2.66 2.97 3.32 5.94 4 9 C3.01 9 2.02 9 1 9 C0.67 6.03 0.34 3.06 0 0 Z " fill="#BDBDBD" transform="translate(209,261)"/>
<path d="M0 0 C1.65 0 3.3 0 5 0 C5.33 0.99 5.66 1.98 6 3 C3.69 3 1.38 3 -1 3 C-0.67 2.01 -0.34 1.02 0 0 Z " fill="#DCDCD9" transform="translate(250,176)"/>
<path d="M0 0 C2.475 0.495 2.475 0.495 5 1 C5 1.99 5 2.98 5 4 C3.68 4 2.36 4 1 4 C0.67 2.68 0.34 1.36 0 0 Z " fill="#C4C4C4" transform="translate(238,307)"/>
<path d="M0 0 C0.99 0 1.98 0 3 0 C3.33 1.98 3.66 3.96 4 6 C3.01 5.67 2.02 5.34 1 5 C0.67 3.35 0.34 1.7 0 0 Z " fill="#C7C7C7" transform="translate(213,293)"/>
<path d="M0 0 C2 2 2 2 2.125 4.625 C2.08375 5.40875 2.0425 6.1925 2 7 C1.34 7 0.68 7 0 7 C-0.33 7.99 -0.66 8.98 -1 10 C-0.67 6.7 -0.34 3.4 0 0 Z " fill="#878787" transform="translate(308,251)"/>
<path d="M0 0 C0.66 0.33 1.32 0.66 2 1 C1.67 3.64 1.34 6.28 1 9 C-1.14809171 5.77786243 -1.29386153 4.72224599 -1 1 C-0.67 0.67 -0.34 0.34 0 0 Z " fill="#A3A3A2" transform="translate(177,253)"/>
<path d="M0 0 C0.33 0.66 0.66 1.32 1 2 C1.66 2 2.32 2 3 2 C2.67 4.31 2.34 6.62 2 9 C0.14223235 5.86501708 -0.20140476 3.62528568 0 0 Z " fill="#868686" transform="translate(307,233)"/>
<path d="M0 0 C2.4294516 3.6441774 2.16179575 5.71241272 2 10 C0.4375 8.375 0.4375 8.375 -1 6 C-0.6875 2.75 -0.6875 2.75 0 0 Z " fill="#909090" transform="translate(289,220)"/>
<path d="M0 0 C2 3 2 3 1.75 5.0625 C1 7 1 7 -1 9 C-1.125 2.25 -1.125 2.25 0 0 Z " fill="#A6A6A6" transform="translate(204,220)"/>
<path d="M0 0 C0.99 0.33 1.98 0.66 3 1 C0.525 4.465 0.525 4.465 -2 8 C-2.33 6.68 -2.66 5.36 -3 4 C-2.01 3.67 -1.02 3.34 0 3 C0 2.01 0 1.02 0 0 Z " fill="#8B8B8B" transform="translate(226,192)"/>
</svg>
