<?xml version="1.0" encoding="UTF-8"?>
<svg version="1.1" xmlns="http://www.w3.org/2000/svg" width="500" height="500">
<path d="M0 0 C2.62451172 1.31005859 2.62451172 1.31005859 5.4296875 3.1484375 C6.98296753 4.15487305 6.98296753 4.15487305 8.56762695 5.18164062 C9.65906006 5.90544922 10.75049316 6.62925781 11.875 7.375 C13.00744977 8.11486202 14.14051002 8.85379043 15.27416992 9.59179688 C18.5257255 11.71340907 21.76379252 13.85504148 25 16 C25.80550293 16.53141602 26.61100586 17.06283203 27.44091797 17.61035156 C32.71564075 21.09115779 37.96296323 24.61031602 43.18359375 28.171875 C47.73782904 31.25831216 52.24742005 34.20001899 57.125 36.75 C63.82688707 40.30315564 70.01057966 44.59642435 76.2890625 48.8359375 C80.81875336 51.89258864 85.40153216 54.86071474 90 57.8125 C106.31719804 68.31719804 106.31719804 68.31719804 110 72 C110.359375 74.93359375 110.359375 74.93359375 110 78 C108.515625 79.66015625 108.515625 79.66015625 106.25 81.0625 C104.88681641 81.93648437 104.88681641 81.93648437 103.49609375 82.828125 C102.95710449 83.16134766 102.41811523 83.49457031 101.86279297 83.83789062 C98.846719 85.71947806 95.88047207 87.67710933 92.90454102 89.62133789 C90.28428911 91.33090603 87.65824204 93.03127999 85.03125 94.73046875 C80.76783649 97.49382205 76.53191932 100.2950554 72.3125 103.125 C64.27214401 108.51523866 56.13883204 113.76006652 48 119 C50.83656664 121.26925331 53.81998917 123.04179439 56.98291016 124.81689453 C61.00125918 127.17382014 64.8270409 129.8330479 68.6875 132.4375 C75.13216905 136.76303002 81.59379851 141.0567577 88.11157227 145.27148438 C90.61904836 146.89322799 93.12058002 148.52379812 95.62109375 150.15625 C98.22107208 151.85283188 100.8321651 153.52357389 103.47265625 155.15625 C104.38917969 155.7440625 105.30570313 156.331875 106.25 156.9375 C107.37148438 157.63166016 107.37148438 157.63166016 108.515625 158.33984375 C110 160 110 160 110.484375 162.94140625 C109.8699712 166.82106893 109.09328641 167.60151331 106 170 C103.17634873 171.91978006 100.28551999 173.71540707 97.375 175.5 C90.67543855 179.66527283 84.04849133 183.9133537 77.5 188.3125 C60.40890401 199.76527737 60.40890401 199.76527737 52.625 203.875 C47.8493322 206.42879682 43.45420646 209.35977074 39.03198242 212.48095703 C34.67712959 215.55115689 30.24703466 218.47859607 25.73876953 221.32104492 C22.07591011 223.63736841 18.48211717 226.03177995 14.9140625 228.4921875 C14.02920166 229.09256836 13.14434082 229.69294922 12.23266602 230.31152344 C10.48297605 231.49984721 8.7433632 232.70317726 7.01538086 233.92285156 C3.24570497 236.45876751 0.94454245 237.96274193 -3.6640625 238.14453125 C-7.54097458 236.81439631 -10.64547487 234.94173432 -13.9375 232.5625 C-15.25103068 231.64877553 -16.56619198 230.73739155 -17.8828125 229.828125 C-18.89456543 229.12526367 -18.89456543 229.12526367 -19.92675781 228.40820312 C-23.32200275 226.10205936 -26.81655982 223.96158235 -30.3125 221.8125 C-34.68938058 219.107446 -38.99705447 216.36526938 -43.1875 213.375 C-50.59759429 208.09267903 -58.40055635 203.43496906 -66.34033203 198.99829102 C-72.19862083 195.72133576 -77.65560993 192.1675463 -83.02734375 188.1328125 C-86.57062472 185.59058989 -90.22813179 183.29002936 -93.9375 181 C-98.94861283 177.90074082 -103.94417663 174.7885489 -108.875 171.5625 C-109.82117188 170.94503906 -110.76734375 170.32757813 -111.7421875 169.69140625 C-114 168 -114 168 -116 165 C-115.9375 162.5625 -115.9375 162.5625 -115 160 C-111.67999728 157.09476821 -108.11927877 154.7081553 -104.39453125 152.35546875 C-103.32783203 151.67806641 -102.26113281 151.00066406 -101.16210938 150.30273438 C-99.50405273 149.25569336 -99.50405273 149.25569336 -97.8125 148.1875 C-90.80732791 143.75989865 -83.87761063 139.28164454 -77.11547852 134.48950195 C-74.643843 132.74923094 -72.12316583 131.10604961 -69.5625 129.5 C-64.02968444 126.01867785 -58.51338348 122.51200397 -53 119 C-53.61407715 118.61255615 -54.2281543 118.2251123 -54.86083984 117.82592773 C-57.70048217 116.03228699 -60.53774467 114.234914 -63.375 112.4375 C-64.34050781 111.82841797 -65.30601562 111.21933594 -66.30078125 110.59179688 C-71.86447443 107.06314583 -77.32222949 103.42836092 -82.70019531 99.62280273 C-85.99372305 97.29880285 -89.33429985 95.04916734 -92.6875 92.8125 C-93.29916016 92.40064453 -93.91082031 91.98878906 -94.54101562 91.56445312 C-99.27293787 88.40483097 -104.10257767 85.51995926 -109.14453125 82.875 C-111.69700696 81.53599635 -113.72365026 80.35695175 -115.5 78.0625 C-116.16489546 75.31980623 -115.83973637 73.69449389 -115 71 C-113.1015625 69.2265625 -113.1015625 69.2265625 -110.625 67.625 C-109.72652344 67.03589844 -108.82804688 66.44679688 -107.90234375 65.83984375 C-106.94457031 65.23269531 -105.98679688 64.62554687 -105 64 C-104.03191406 63.36191406 -103.06382812 62.72382813 -102.06640625 62.06640625 C-97.7968036 59.27986775 -93.80167102 56.76722183 -89 55 C-89 54.34 -89 53.68 -89 53 C-88.01128906 52.44828125 -87.02257812 51.8965625 -86.00390625 51.328125 C-81.87022504 48.96602145 -77.91085524 46.36984509 -73.9375 43.75 C-68.62899538 40.27532142 -63.29143045 36.9652938 -57.75 33.875 C-49.86330074 29.45229823 -42.62525743 24.31609692 -35.28125 19.05078125 C-30.82633853 15.88146923 -26.39152793 13.0259532 -21.5625 10.46484375 C-19.47457779 9.27129066 -17.49703163 8.02614608 -15.5 6.69140625 C-14.88157227 6.28003418 -14.26314453 5.86866211 -13.62597656 5.44482422 C-12.39746298 4.62144513 -11.17513969 3.78873574 -9.95996094 2.94580078 C-6.41129916 0.57500552 -4.24337633 -0.49693307 0 0 Z M-7.375 16.75 C-8.85419922 17.69939453 -8.85419922 17.69939453 -10.36328125 18.66796875 C-10.92998535 19.03196777 -11.49668945 19.3959668 -12.08056641 19.77099609 C-15.89880369 22.21579468 -19.73053208 24.63929984 -23.5625 27.0625 C-24.39749023 27.59061279 -25.23248047 28.11872559 -26.09277344 28.6628418 C-30.07687748 31.176772 -34.0673607 33.66828402 -38.125 36.0625 C-44.85780367 40.05057186 -51.37280161 44.38991462 -57.93066406 48.65673828 C-60.82121929 50.53307557 -63.72297774 52.39144095 -66.625 54.25 C-68.35365133 55.36388448 -70.08227441 56.47781293 -71.81054688 57.59228516 C-73.48714812 58.67026049 -75.16594555 59.74482074 -76.84570312 60.81787109 C-80.02644419 62.85111083 -83.20098625 64.89377786 -86.375 66.9375 C-87.41736816 67.60104492 -88.45973633 68.26458984 -89.53369141 68.94824219 C-90.98267822 69.88458496 -90.98267822 69.88458496 -92.4609375 70.83984375 C-93.33540527 71.40050537 -94.20987305 71.96116699 -95.11083984 72.53881836 C-95.7342627 73.0210083 -96.35768555 73.50319824 -97 74 C-97 74.66 -97 75.32 -97 76 C-95.98292969 76.52787109 -95.98292969 76.52787109 -94.9453125 77.06640625 C-89.36379838 80.02723715 -84.17634748 83.19683272 -79.0546875 86.88671875 C-74.99023165 89.69857376 -70.81235653 92.31342324 -66.625 94.9375 C-60.31238808 98.89640162 -54.0642107 102.91913941 -47.87890625 107.07421875 C-40.02335513 112.32901753 -32.12104883 117.43919706 -23.875 122.0625 C-18.19361194 125.24868384 -12.8578193 128.69952649 -7.5234375 132.43359375 C-4.46125453 134.37344378 -4.46125453 134.37344378 -1 135 C1.19717888 133.89590719 1.19717888 133.89590719 3.375 132.125 C7.48744141 129.09063602 11.64064568 126.20072405 15.9375 123.4375 C16.53667236 123.05158691 17.13584473 122.66567383 17.75317383 122.26806641 C21.283417 120.02046071 24.85654461 117.95021851 28.5625 116 C33.1633652 113.55599904 37.36845244 110.73901286 41.6171875 107.72949219 C47.10888884 103.86437444 52.77775979 100.30533648 58.46948242 96.74389648 C65.48368097 92.34823896 72.42024796 87.83979027 79.32641602 83.27636719 C83.45433069 80.56873287 87.5223523 78.08380062 92 76 C92 75.34 92 74.68 92 74 C89.88181184 72.4039951 89.88181184 72.4039951 87.16015625 70.79296875 C86.15227051 70.1695459 85.14438477 69.54612305 84.10595703 68.90380859 C83.08099121 68.27555176 82.05602539 67.64729492 81 67 C79.24668519 65.8951146 77.49529864 64.78716185 75.74609375 63.67578125 C74.88089111 63.12801025 74.01568848 62.58023926 73.12426758 62.01586914 C64.37112929 56.46651468 55.68499903 50.83402228 47.07617188 45.06347656 C36.5890739 38.00786435 36.5890739 38.00786435 25.6875 31.625 C16.64285467 26.70484285 8.07465374 20.79398749 -0.42578125 14.99609375 C-3.36906386 13.1337189 -4.60309294 14.95892159 -7.375 16.75 Z M-45 128.8125 C-52.51023393 134.11633752 -60.25813397 139.04388491 -68 144 C-68.92651367 144.59393555 -69.85302734 145.18787109 -70.80761719 145.79980469 C-73.74513143 147.68157338 -76.68466037 149.5601496 -79.625 151.4375 C-80.54893555 152.02861572 -81.47287109 152.61973145 -82.42480469 153.22875977 C-87.21862778 156.28195811 -92.03563503 159.23219652 -97 162 C-93.32090864 165.92297052 -89.50393313 168.8921628 -85 171.8125 C-84.0109668 172.4631543 -84.0109668 172.4631543 -83.00195312 173.12695312 C-77.84247577 176.50217318 -72.59517615 179.7253485 -67.328125 182.9296875 C-60.2743587 187.31759376 -53.39026076 191.98474937 -46.54296875 196.6875 C-41.74706448 199.96188362 -36.7959728 202.840846 -31.72998047 205.67919922 C-25.98412796 208.93513114 -20.46156685 212.50895627 -14.94921875 216.14331055 C-10.71319883 218.92928486 -6.42794321 221.52912686 -2 224 C-1.35417969 223.56171875 -0.70835937 223.1234375 -0.04296875 222.671875 C6.49583498 218.27092912 13.09947361 213.97985163 19.75 209.75 C20.93686401 208.98961426 20.93686401 208.98961426 22.14770508 208.21386719 C26.97604466 205.15674276 31.84620487 202.47099767 37 200 C37 199.34 37 198.68 37 198 C37.56074219 197.90203125 38.12148438 197.8040625 38.69921875 197.703125 C41.52180757 196.84053419 43.42405703 195.48021066 45.8125 193.75 C46.69164062 193.11964844 47.57078125 192.48929687 48.4765625 191.83984375 C49.97196849 190.74954 51.46693634 189.65863419 52.9609375 188.56640625 C53.53070313 188.15261719 54.10046875 187.73882812 54.6875 187.3125 C55.40486328 186.78076172 55.40486328 186.78076172 56.13671875 186.23828125 C58.38382234 184.7449231 60.72351792 183.43633974 63.07104492 182.10864258 C66.36724439 180.21419355 69.58940635 178.20310585 72.8125 176.1875 C73.85374023 175.5370874 73.85374023 175.5370874 74.91601562 174.87353516 C80.40305333 171.42312078 85.75391569 167.80845544 91 164 C89.64694842 159.94084527 87.04177913 158.99731076 83.5 157 C82.12087564 156.19792069 80.74332849 155.39312472 79.3671875 154.5859375 C78.64756836 154.1640918 77.92794922 153.74224609 77.18652344 153.30761719 C73.60884673 151.16804188 70.11623265 148.90208474 66.625 146.625 C65.92600586 146.16923584 65.22701172 145.71347168 64.50683594 145.24389648 C63.07424564 144.30905122 61.64195639 143.37374448 60.20996094 142.43798828 C57.91953424 140.94764215 55.62115863 139.47029716 53.3203125 137.99609375 C52.55509277 137.5047998 51.78987305 137.01350586 51.00146484 136.50732422 C49.54209829 135.57081031 48.0815566 134.63612411 46.61962891 133.70361328 C42.90689052 131.31472721 39.39522419 128.83593339 36 126 C32.22564492 127.3663436 29.17295172 129.09624035 25.875 131.375 C20.31645878 135.1221758 14.74655251 138.84777429 9.125 142.5 C8.31659668 143.04060059 7.50819336 143.58120117 6.67529297 144.13818359 C3.4510468 146.21659565 0.74055035 147.82710887 -3.01171875 148.703125 C-7.66170138 147.60901144 -11.0858378 144.99890414 -14.9375 142.25 C-16.48680312 141.16975195 -18.03756448 140.09159204 -19.58984375 139.015625 C-20.70891113 138.23687012 -20.70891113 138.23687012 -21.85058594 137.44238281 C-24.81368764 135.45396791 -27.88648806 133.74266531 -31 132 C-32.63692778 130.93477535 -34.26385321 129.85383067 -35.875 128.75 C-40.41505136 125.64121907 -40.54077495 125.59613328 -45 128.8125 Z " fill="#D4D4D4" transform="translate(252,132)"/>
<path d="M0 0 C3.3125 2 3.3125 2 6 4 C5.01 4.495 5.01 4.495 4 5 C3.4225 4.690625 2.845 4.38125 2.25 4.0625 C-0.89194173 2.57880529 -2.52819558 2.47595405 -6 3 C-8.46676898 4.43097559 -10.74909952 5.99933842 -13.046875 7.6875 C-15 9 -15 9 -17 9 C-17.309375 9.9590625 -17.309375 9.9590625 -17.625 10.9375 C-19 13 -19 13 -22.125 13.75 C-23.548125 13.87375 -23.548125 13.87375 -25 14 C-21.50061547 10.10977512 -17.45700753 7.5060813 -13.0625 4.75 C-12.35931641 4.29109375 -11.65613281 3.8321875 -10.93164062 3.359375 C-4.29251076 -0.82197015 -4.29251076 -0.82197015 0 0 Z " fill="#464646" transform="translate(252,132)"/>
<path d="M0 0 C2.63111523 1.27827021 5.1341491 2.64918511 7.609375 4.20703125 C8.28226563 4.62919922 8.95515625 5.05136719 9.6484375 5.48632812 C10.68871094 6.1427832 10.68871094 6.1427832 11.75 6.8125 C12.76707031 7.45155273 12.76707031 7.45155273 13.8046875 8.10351562 C16.59168428 9.85466094 19.3785348 11.60588983 22.15820312 13.36865234 C23.20137695 14.02728271 23.20137695 14.02728271 24.265625 14.69921875 C25.19810059 15.29029419 25.19810059 15.29029419 26.14941406 15.89331055 C28.05648278 17.0337779 30.00103949 18.03118373 32 19 C32 19.66 32 20.32 32 21 C27.36092417 19.3758748 23.43706584 16.93052878 19.3125 14.3125 C18.60859131 13.86841797 17.90468262 13.42433594 17.17944336 12.96679688 C1.51116357 3.02232714 1.51116357 3.02232714 0 0 Z " fill="#282828" transform="translate(166,228)"/>
<path d="M0 0 C5.92639944 1.51516361 10.40514191 4.70871796 15.375 8.125 C16.20644531 8.68832031 17.03789062 9.25164062 17.89453125 9.83203125 C19.93403557 11.21514337 21.96892541 12.60455176 24 14 C23.01 14.495 23.01 14.495 22 15 C20.18408203 14.16723633 20.18408203 14.16723633 18.0078125 12.83203125 C17.22019531 12.35056641 16.43257813 11.86910156 15.62109375 11.37304688 C14.38552734 10.60057617 14.38552734 10.60057617 13.125 9.8125 C12.30902344 9.31685547 11.49304688 8.82121094 10.65234375 8.31054688 C6.68281084 5.85953838 3.09935847 3.54817268 0 0 Z " fill="#2C2C2C" transform="translate(302,254)"/>
<path d="M0 0 C1.98 0 3.96 0 6 0 C6.226875 0.598125 6.45375 1.19625 6.6875 1.8125 C8.41521691 4.69202818 9.96199671 5.58226513 13 7 C16.69523952 7.71923208 16.69523952 7.71923208 20 8 C19.67 8.66 19.34 9.32 19 10 C13.44566317 9.5517307 10.11414097 8.18217096 5.5625 5 C4.51191406 4.278125 3.46132812 3.55625 2.37890625 2.8125 C1.59386719 2.214375 0.80882812 1.61625 0 1 C0 0.67 0 0.34 0 0 Z " fill="#474747" transform="translate(233,360)"/>
<path d="M0 0 C11.70615034 7.11389522 11.70615034 7.11389522 16 12 C11.78345644 10.51364884 8.37521395 8.38750841 4.6875 5.875 C3.61886719 5.15054687 2.55023438 4.42609375 1.44921875 3.6796875 C0.64097656 3.12539063 -0.16726562 2.57109375 -1 2 C-0.67 1.34 -0.34 0.68 0 0 Z " fill="#2B2B2B" transform="translate(154,294)"/>
<path d="M0 0 C0.66 0.33 1.32 0.66 2 1 C-2.455 4.465 -2.455 4.465 -7 8 C-7.66 7.67 -8.32 7.34 -9 7 C-8.4375 5.1875 -8.4375 5.1875 -7 3 C-3.5 1.1875 -3.5 1.1875 0 0 Z " fill="#9C9C9C" transform="translate(264,347)"/>
<path d="M0 0 C1.32 0.66 2.64 1.32 4 2 C1.67350413 4.50719458 -0.82681521 6.32183601 -3.6875 8.1875 C-4.49574219 8.71730469 -5.30398438 9.24710937 -6.13671875 9.79296875 C-6.75160156 10.19128906 -7.36648438 10.58960938 -8 11 C-8.66 10.67 -9.32 10.34 -10 10 C-9.278125 9.52949219 -8.55625 9.05898438 -7.8125 8.57421875 C-6.884375 7.95160156 -5.95625 7.32898438 -5 6.6875 C-4.071875 6.07261719 -3.14375 5.45773437 -2.1875 4.82421875 C-1.465625 4.22222656 -0.74375 3.62023437 0 3 C0 2.01 0 1.02 0 0 Z " fill="#2B2B2B" transform="translate(342,293)"/>
<path d="M0 0 C-0.625 1.9375 -0.625 1.9375 -2 4 C-5.125 4.75 -5.125 4.75 -8 5 C-3.375 0 -3.375 0 0 0 Z " fill="#6A6A6A" transform="translate(321,311)"/>
<path d="M0 0 C-3.20336822 2.83374881 -5.78087253 3.5205537 -10 4 C-4.4 -2.2 -4.4 -2.2 0 0 Z " fill="#939393" transform="translate(319,226)"/>
<path d="M0 0 C3.93673644 1.31224548 6.22719294 2.91910327 9 6 C2.35384615 4.52307692 2.35384615 4.52307692 0.5625 1.875 C0.376875 1.25625 0.19125 0.6375 0 0 Z " fill="#505050" transform="translate(186,316)"/>
</svg>
