<?xml version="1.0" encoding="UTF-8"?>
<svg version="1.1" xmlns="http://www.w3.org/2000/svg" width="500" height="500">
<path d="M0 0 C1.81018555 0.0149703 3.62032856 0.0356551 5.43040466 0.06056213 C6.90828964 0.07497345 6.90828964 0.07497345 8.41603088 0.0896759 C11.68969077 0.12279489 14.9632225 0.16307778 18.23680115 0.2033844 C20.49981223 0.22767292 22.76282811 0.2515171 25.02584839 0.27493286 C30.99522867 0.33789998 36.96452429 0.40693063 42.93382263 0.47718811 C49.01980214 0.54775781 55.10584189 0.61264267 61.19187927 0.67799377 C73.14311735 0.80716878 85.09427374 0.9427441 97.0453949 1.08229065 C97.18462261 11.13115318 97.29113109 21.17978501 97.35626793 31.22941685 C97.38753611 35.89629835 97.42992543 40.56251835 97.49803162 45.22901917 C97.56338672 49.73539638 97.59913488 54.24113873 97.61465836 58.74795341 C97.62571589 60.46437 97.64730954 62.18075313 97.67977524 63.89689827 C97.95469623 79.03604475 97.95469623 79.03604475 94.1962738 83.62892151 C90.02908813 86.87361769 87.48700437 87.20513311 82.3578949 87.14479065 C81.36402771 87.13576721 80.37016052 87.12674377 79.34617615 87.1174469 C78.58691833 87.10584534 77.82766052 87.09424377 77.0453949 87.08229065 C77.0768158 88.30746399 77.0768158 88.30746399 77.10887146 89.55738831 C77.19224619 93.27389619 77.24412478 96.99020698 77.2953949 100.70729065 C77.32891052 101.99248596 77.36242615 103.27768127 77.3969574 104.6018219 C77.51939106 116.41667081 77.51939106 116.41667081 73.0453949 121.08229065 C69.63245394 123.67141828 66.20804926 123.30528999 62.0453949 123.08229065 C59.6078949 122.58229065 59.6078949 122.58229065 58.0453949 122.08229065 C58.0453949 121.42229065 58.0453949 120.76229065 58.0453949 120.08229065 C57.4060199 119.81416565 56.7666449 119.54604065 56.1078949 119.26979065 C54.0453949 118.08229065 54.0453949 118.08229065 53.0453949 115.08229065 C52.96201449 112.9443454 52.93805743 110.80387056 52.94773865 108.6643219 C52.9509613 107.41070862 52.95418396 106.15709534 52.95750427 104.86549377 C52.97007263 102.89999573 52.97007263 102.89999573 52.9828949 100.89479065 C52.98791172 99.55950584 52.99247431 98.22421924 52.99656677 96.88893127 C53.00836785 93.62003185 53.02630354 90.35115563 53.0453949 87.08229065 C48.4253949 87.08229065 43.8053949 87.08229065 39.0453949 87.08229065 C39.15238708 88.88955627 39.25937927 90.6968219 39.36961365 92.55885315 C39.49156638 94.94162184 39.6126127 97.32443705 39.7328949 99.70729065 C39.80572693 100.89709534 39.87855896 102.08690002 39.95359802 103.3127594 C40.48913132 114.59046054 40.48913132 114.59046054 37.0453949 119.08229065 C36.0553949 119.41229065 35.0653949 119.74229065 34.0453949 120.08229065 C34.0453949 120.74229065 34.0453949 121.40229065 34.0453949 122.08229065 C25.12715728 123.51959885 25.12715728 123.51959885 21.1078949 121.89479065 C18.02204252 119.18298098 16.34839726 116.99129774 15.0453949 113.08229065 C14.96247537 111.09026035 14.93801313 109.09555352 14.94773865 107.1018219 C14.9509613 105.93844299 14.95418396 104.77506409 14.95750427 103.57643127 C14.96588318 102.36148987 14.97426208 101.14654846 14.9828949 99.89479065 C14.98740662 98.66824768 14.99191833 97.44170471 14.99656677 96.17799377 C15.00836424 93.14604397 15.02482569 90.11419159 15.0453949 87.08229065 C14.36267517 87.09534241 13.67995544 87.10839417 12.97654724 87.12184143 C12.07887634 87.1319928 11.18120544 87.14214417 10.2563324 87.15260315 C9.36736267 87.16565491 8.47839294 87.17870667 7.56248474 87.19215393 C4.02547551 87.03777428 1.91722214 86.13359582 -0.9546051 84.08229065 C-4.62852868 79.54930884 -5.52927613 76.0443208 -5.42457581 70.34864807 C-5.4267662 69.59835327 -5.4289566 68.84805847 -5.43121338 68.07502747 C-5.43351224 65.61214609 -5.40734715 63.15047988 -5.38038635 60.6877594 C-5.37546029 58.97237528 -5.37216282 57.25698577 -5.37042236 55.54159546 C-5.36279866 51.95643297 -5.34228114 48.37167205 -5.31129456 44.78663635 C-5.2715712 40.18179116 -5.25366034 35.57720605 -5.24398518 30.97220898 C-5.23403794 26.58569032 -5.21414087 22.19923568 -5.19288635 17.8127594 C-5.1894906 16.97190481 -5.18609486 16.13105022 -5.18259621 15.26471519 C-5.17107561 12.89938502 -5.15256716 10.5342236 -5.13160706 8.16896057 C-5.12891815 7.46197525 -5.12622925 6.75498993 -5.12345886 6.02658081 C-5.05731862 0.10523681 -5.05731862 0.10523681 0 0 Z " fill="#F7F7F7" transform="translate(203.95460510253906,217.91770935058594)"/>
<path d="M0 0 C1.875 0.625 1.875 0.625 4 2 C5.25 5.125 5.25 5.125 6 8 C6.66 8 7.32 8 8 8 C8 8.99 8 9.98 8 11 C8.66 11 9.32 11 10 11 C10 11.99 10 12.98 10 14 C10.58007812 13.79503906 11.16015625 13.59007812 11.7578125 13.37890625 C12.92957031 12.97478516 12.92957031 12.97478516 14.125 12.5625 C15.27355469 12.16224609 15.27355469 12.16224609 16.4453125 11.75390625 C28.04048831 8.33208831 43.03813581 8.5190679 54 14 C54.26554687 13.27425781 54.53109375 12.54851562 54.8046875 11.80078125 C56.00072948 8.99829072 57.40329107 6.69520648 59.125 4.1875 C59.66382813 3.39730469 60.20265625 2.60710937 60.7578125 1.79296875 C61.16773438 1.20128906 61.57765625 0.60960937 62 0 C63.32 0.66 64.64 1.32 66 2 C64.53687491 5.90166692 62.73523694 9.54551489 60.8046875 13.23046875 C59.86201522 14.97944855 59.86201522 14.97944855 60 17 C61.63089977 18.19619303 63.30694332 19.33103225 65 20.4375 C71.12937721 24.79196103 75.09691542 29.61730875 79 36 C79.45503906 36.74121094 79.91007812 37.48242188 80.37890625 38.24609375 C84.06146531 45.23910661 83 49.20174291 83 58 C49.34 58 15.68 58 -19 58 C-19 44.5 -19 44.5 -17 40.25 C-16.62875 39.43015625 -16.2575 38.6103125 -15.875 37.765625 C-15.58625 37.18296875 -15.2975 36.6003125 -15 36 C-14.34 36 -13.68 36 -13 36 C-12.89558594 35.41734375 -12.79117188 34.8346875 -12.68359375 34.234375 C-10.27492564 26.36147124 -1.24032394 20.7210499 5 16 C4.66226563 15.32453125 4.32453125 14.6490625 3.9765625 13.953125 C0.98828125 7.9765625 0.98828125 7.9765625 -2 2 C-1.34 1.34 -0.68 0.68 0 0 Z M10 31 C8.02 31.99 8.02 31.99 6 33 C6 34.32 6 35.64 6 37 C8.475 37.495 8.475 37.495 11 38 C11.67958603 35.60280568 11.67958603 35.60280568 12 33 C11.34 32.34 10.68 31.68 10 31 Z M53 32 C51.98888907 35.04913228 51.98888907 35.04913228 53 38 C55.47266765 37.65555119 55.47266765 37.65555119 58 37 C58.33 36.34 58.66 35.68 59 35 C58.34 34.01 57.68 33.02 57 32 C55.68 32 54.36 32 53 32 Z " fill="#F2F2F2" transform="translate(218,158)"/>
<path d="M0 0 C2.76101146 1.82109266 4.52100548 3.04201097 6 6 C6.12864039 7.59067713 6.19782909 9.18635025 6.23706055 10.78173828 C6.27666145 12.27436691 6.27666145 12.27436691 6.31706238 13.79714966 C6.35154228 15.41736526 6.35154228 15.41736526 6.38671875 17.0703125 C6.41224319 18.18050751 6.43776764 19.29070251 6.46406555 20.43453979 C6.51615602 22.78996274 6.56557289 25.14544607 6.61254883 27.50097656 C6.68676685 31.08955067 6.7775604 34.67745762 6.86914062 38.265625 C6.91769118 40.554666 6.96524874 42.84372832 7.01171875 45.1328125 C7.04077805 46.20081085 7.06983734 47.2688092 7.09977722 48.36917114 C7.33205926 62.26978428 7.33205926 62.26978428 2.4375 68 C-1.84610688 70.49228037 -5.14683127 70.8382746 -10 70 C-13.37106171 68.91319053 -15.23776552 66.99261565 -17.14569092 64.02659607 C-19.00277134 59.62122106 -18.54370215 54.73327798 -18.49609375 50.03125 C-18.4982766 48.30074402 -18.4982766 48.30074402 -18.50050354 46.53527832 C-18.49884683 44.10112986 -18.48731128 41.66697067 -18.46655273 39.23291016 C-18.43760034 35.51289244 -18.44594958 31.79430071 -18.45898438 28.07421875 C-18.45274654 25.70572226 -18.44435525 23.33723026 -18.43359375 20.96875 C-18.43652939 19.85922974 -18.43946503 18.74970947 -18.44248962 17.60656738 C-18.37439475 12.01646188 -18.23406607 7.78710956 -15 3 C-10.38319501 -1.18397952 -5.92857786 -1.52548202 0 0 Z " fill="#E7E7E7" transform="translate(190,217)"/>
<path d="M0 0 C2.72125101 2.21302683 4.43074913 4.86149825 6 8 C6.1055881 9.66320761 6.14875096 11.33056046 6.16113281 12.99707031 C6.17074036 14.03865295 6.1803479 15.0802356 6.19024658 16.15338135 C6.19449646 17.28354675 6.19874634 18.41371216 6.203125 19.578125 C6.20882507 20.73745544 6.21452515 21.89678589 6.22039795 23.09124756 C6.2298587 25.5492664 6.23638618 28.00729799 6.24023438 30.46533203 C6.24992415 34.22060418 6.28093174 37.97532552 6.3125 41.73046875 C6.31903148 44.11718425 6.32428138 46.50390366 6.328125 48.890625 C6.3404718 50.01269348 6.3528186 51.13476196 6.36553955 52.29083252 C6.34948405 57.93062373 6.27104146 62.16870027 3 67 C0.13166277 69.820631 -1.95100643 70.43135748 -5.9375 70.4375 C-9.47033951 70.32823692 -10.87151132 70.07495173 -14 68.25 C-17.35586901 64.47464736 -18.24976536 61.72125116 -18.2746582 56.68408203 C-18.28419022 55.6226297 -18.29372223 54.56117737 -18.30354309 53.46755981 C-18.30263168 52.3258432 -18.30172028 51.18412659 -18.30078125 50.0078125 C-18.30506638 48.82911591 -18.3093515 47.65041931 -18.31376648 46.43600464 C-18.31950906 43.94285728 -18.32001058 41.44969317 -18.31567383 38.95654297 C-18.31251782 35.14651804 -18.33596144 31.33727246 -18.36132812 27.52734375 C-18.36360154 25.10416765 -18.36430442 22.68098945 -18.36328125 20.2578125 C-18.372491 19.12014435 -18.38170074 17.9824762 -18.39118958 16.81033325 C-18.33268701 6.78165981 -18.33268701 6.78165981 -15 2 C-10.26808305 -1.49260537 -5.49262478 -1.86122092 0 0 Z " fill="#E5E5E5" transform="translate(322,217)"/>
<path d="M0 0 C1.32 0.66 2.64 1.32 4 2 C2.5452644 5.87929495 0.7501189 9.4833536 -1.1953125 13.1328125 C-2.19788674 15.12030705 -2.19788674 15.12030705 -2 18 C-2.66 18 -3.32 18 -4 18 C-4 16.35 -4 14.7 -4 13 C-4.99 13 -5.98 13 -7 13 C-7 13.66 -7 14.32 -7 15 C-10.95835473 14.48369286 -14.79498688 13.82416292 -18.6875 12.9375 C-28.94129013 10.87744851 -38.80343674 12.15804019 -49 14 C-44.43486263 9.43486263 -36.30237427 9.8309775 -30.1875 9.6875 C-22.79070802 9.78471961 -14.70728092 10.64635954 -8 14 C-7.73445313 13.27425781 -7.46890625 12.54851562 -7.1953125 11.80078125 C-5.99927052 8.99829072 -4.59670893 6.69520648 -2.875 4.1875 C-2.33617187 3.39730469 -1.79734375 2.60710937 -1.2421875 1.79296875 C-0.83226562 1.20128906 -0.42234375 0.60960937 0 0 Z " fill="#606060" transform="translate(280,158)"/>
<path d="M0 0 C1.875 0.625 1.875 0.625 4 2 C5.25 5.125 5.25 5.125 6 8 C6.66 8 7.32 8 8 8 C8 8.99 8 9.98 8 11 C8.66 11 9.32 11 10 11 C9.33333333 13 8.66666667 15 8 17 C5.4375 18.1875 5.4375 18.1875 3 19 C3.39960938 18.46890625 3.79921875 17.9378125 4.2109375 17.390625 C5.34224553 14.86160664 5.34224553 14.86160664 3.6640625 11.984375 C2.99117187 10.91703125 2.31828125 9.8496875 1.625 8.75 C0.95726562 7.67234375 0.28953125 6.5946875 -0.3984375 5.484375 C-0.92695313 4.66453125 -1.45546875 3.8446875 -2 3 C-1.34 2.01 -0.68 1.02 0 0 Z " fill="#707070" transform="translate(218,158)"/>
<path d="M0 0 C0.66 0.33 1.32 0.66 2 1 C-1.51548654 6.04395895 -6.11736877 9.37975847 -11 13 C-11 10 -11 10 -9.35546875 8.02734375 C-8.64003906 7.33769531 -7.92460937 6.64804688 -7.1875 5.9375 C-6.47980469 5.24527344 -5.77210938 4.55304688 -5.04296875 3.83984375 C-3 2 -3 2 0 0 Z " fill="#8B8B8B" transform="translate(219,177)"/>
<path d="M0 0 C1.32 0 2.64 0 4 0 C3.67 1.65 3.34 3.3 3 5 C2.01 5 1.02 5 0 5 C0 3.35 0 1.7 0 0 Z " fill="#B5B5B5" transform="translate(222,166)"/>
<path d="M0 0 C0.99 0 1.98 0 3 0 C3 1.65 3 3.3 3 5 C2.01 5.495 2.01 5.495 1 6 C0.01 4.68 -0.98 3.36 -2 2 C-1.34 2 -0.68 2 0 2 C0 1.34 0 0.68 0 0 Z " fill="#E3E3E3" transform="translate(273,171)"/>
</svg>
