<?xml version="1.0" encoding="UTF-8"?>
<svg version="1.1" xmlns="http://www.w3.org/2000/svg" width="433" height="577">
<path d="M0 0 C-3.99977763 18.7159406 -10.1854918 36.79283307 -16.375 54.875 C-16.69335815 55.80538086 -17.01171631 56.73576172 -17.33972168 57.69433594 C-18.25247186 60.35704287 -19.16824861 63.01867899 -20.0859375 65.6796875 C-20.36482819 66.49009491 -20.64371887 67.30050232 -20.93106079 68.13546753 C-22.88067595 73.7613519 -22.88067595 73.7613519 -24 76 C-31.92 76 -39.84 76 -48 76 C-48.09687303 77.31241553 -48.09687303 77.31241553 -46.4375 79.1875 C-44.62947038 82.72494925 -44.80318115 84.24996762 -46 88 C-47.66792426 90.64088008 -48.9409092 91.69649302 -51.94921875 92.55859375 C-56.10157217 93.02962861 -58.2419777 92.59199022 -61.5859375 89.98046875 C-63.8336937 87.72916719 -65.95530743 85.43622944 -68 83 C-68.22816406 84.16789062 -68.45632812 85.33578125 -68.69140625 86.5390625 C-70.2771144 93.63250977 -72.60538569 100.49946097 -74.9375 107.375 C-75.17588593 108.08055023 -75.41427185 108.78610046 -75.65988159 109.51303101 C-80.19365605 122.79671699 -86.20874494 134.31311741 -94 146 C-94.66 146 -95.32 146 -96 146 C-96.2475 146.598125 -96.495 147.19625 -96.75 147.8125 C-98.48203847 150.84356732 -100.48615274 152.52910235 -103.83874512 153.57196045 C-106.17542306 154.03474278 -108.32328003 154.14115386 -110.70507812 154.16113281 C-111.63284058 154.17074036 -112.56060303 154.1803479 -113.51647949 154.19024658 C-115.00879089 154.1966214 -115.00879089 154.1966214 -116.53125 154.203125 C-117.55931763 154.20882507 -118.58738525 154.21452515 -119.64660645 154.22039795 C-121.81859308 154.22983564 -123.99059395 154.23637704 -126.16259766 154.24023438 C-129.48755685 154.24996359 -132.81190394 154.28100849 -136.13671875 154.3125 C-138.24739216 154.31902802 -140.35806999 154.32427928 -142.46875 154.328125 C-143.9610614 154.3466452 -143.9610614 154.3466452 -145.48352051 154.36553955 C-146.41128296 154.36253845 -147.33904541 154.35953735 -148.29492188 154.35644531 C-149.10892456 154.36009094 -149.92292725 154.36373657 -150.76159668 154.36749268 C-153.57831234 153.90505485 -154.9345873 152.9448697 -157 151 C-157.90318247 148.2904526 -158.13048821 146.69954041 -158.14526367 143.91503906 C-158.15164352 143.09698792 -158.15802338 142.27893677 -158.16459656 141.43609619 C-158.16570938 140.5548407 -158.1668222 139.67358521 -158.16796875 138.765625 C-158.17296135 137.39854401 -158.17296135 137.39854401 -158.17805481 136.00384521 C-158.18311874 134.07385767 -158.1854633 132.14386137 -158.18530273 130.21386719 C-158.18748129 127.27524159 -158.2056207 124.33699628 -158.22460938 121.3984375 C-158.22754507 119.52083461 -158.22952869 117.64322995 -158.23046875 115.765625 C-158.23765427 114.89246643 -158.24483978 114.01930786 -158.25224304 113.11968994 C-158.22379577 105.43920619 -157.1229375 99.06186817 -152 93 C-149.18172357 91.03614643 -146.20270967 89.5159773 -143.125 88 C-142.27510498 87.56921143 -141.42520996 87.13842285 -140.54956055 86.69458008 C-128.37257845 80.58831493 -116.07989153 75.76945958 -103 72 C-101.87851563 71.66613281 -100.75703125 71.33226562 -99.6015625 70.98828125 C-93.17413482 69.1992869 -87.26401216 67.86799392 -81 71 C-81.43570313 70.50371094 -81.87140625 70.00742187 -82.3203125 69.49609375 C-83.56567047 68.07552308 -84.80627354 66.65077475 -86.04296875 65.22265625 C-87.26831961 63.8309903 -88.5177598 62.45977774 -89.80078125 61.12109375 C-92.42048272 58.32632869 -93.86063744 56.6968128 -94.625 52.875 C-93.8222867 49.18251882 -92.81852075 47.5294417 -90 45 C-86.37061908 44.0278444 -84.09964462 43.57705976 -80.5625 44.9375 C-79.7890625 45.4634375 -79.7890625 45.4634375 -79 46 C-77.7736243 43.54724859 -77.88584686 41.9494219 -77.90234375 39.2109375 C-77.90556641 38.26992187 -77.90878906 37.32890625 -77.91210938 36.359375 C-77.92048828 35.37453125 -77.92886719 34.3896875 -77.9375 33.375 C-77.94201172 32.38242188 -77.94652344 31.38984375 -77.95117188 30.3671875 C-77.96297855 27.9113984 -77.979446 25.45572896 -78 23 C-72.37290676 20.40938467 -66.71351131 18.70772872 -60.75 17.0625 C-48.3093654 13.54697013 -36.12920669 9.36168198 -23.93261719 5.08813477 C-23.20198059 4.83333344 -22.47134399 4.5785321 -21.71856689 4.31600952 C-20.3544088 3.83977089 -18.99131056 3.36047921 -17.62957764 2.87734985 C-4.96748266 -1.54466849 -4.96748266 -1.54466849 0 0 Z M-43 38 C-43.33 39.32 -43.66 40.64 -44 42 C-42.68 42 -41.36 42 -40 42 C-40 40.68 -40 39.36 -40 38 C-40.99 38 -41.98 38 -43 38 Z M-78 47 C-76.38262276 50.23475448 -75.52370777 51.70572021 -73 54 C-72.34 53.67 -71.68 53.34 -71 53 C-73.31 51.02 -75.62 49.04 -78 47 Z M-69 56 C-67.35 57.98 -65.7 59.96 -64 62 C-63.68416352 59.02482427 -63.68416352 59.02482427 -65.375 57.3125 C-66.91117258 55.7905543 -66.91117258 55.7905543 -69 56 Z M-60 65 C-58.38262276 68.23475448 -57.52370777 69.70572021 -55 72 C-54.34 71.67 -53.68 71.34 -53 71 C-55.31 69.02 -57.62 67.04 -60 65 Z M-74 77 C-73.01 77.99 -72.02 78.98 -71 80 C-71.33 79.01 -71.66 78.02 -72 77 C-72.66 77 -73.32 77 -74 77 Z " fill="#FAFAFA" transform="translate(305,188)"/>
<path d="M0 0 C1.18615402 -0.00021904 1.18615402 -0.00021904 2.39627075 -0.0004425 C4.99882796 0.00025177 7.60131278 0.00802139 10.20385742 0.01586914 C12.01275086 0.01773504 13.82164481 0.01915813 15.63053894 0.02015686 C20.3832642 0.02396845 25.13595873 0.03378714 29.88867188 0.04486084 C34.74177637 0.05510416 39.59488585 0.05966074 44.44799805 0.06469727 C53.96428974 0.07541064 63.48055059 0.09299644 72.99682617 0.11352539 C72.99682617 5.06352539 72.99682617 10.01352539 72.99682617 15.11352539 C70.77198486 15.13334473 68.54714355 15.15316406 66.25488281 15.17358398 C58.87874911 15.24068892 51.50275279 15.31832484 44.1267786 15.40105247 C39.65762967 15.4508578 35.18850257 15.49718842 30.71923828 15.53540039 C26.40083148 15.57245336 22.08261478 15.61886582 17.76437187 15.6715889 C16.12231236 15.69002708 14.48021227 15.70517345 12.8380909 15.71686935 C-2.24743558 15.16831704 -2.24743558 15.16831704 -15.37817383 21.23852539 C-16.0046582 21.77735352 -16.63114258 22.31618164 -17.27661133 22.87133789 C-22.61094303 29.79872793 -22.43066526 37.31229364 -22.37548828 45.67651367 C-22.37913895 46.91650116 -22.38278961 48.15648865 -22.3865509 49.43405151 C-22.39324052 52.81424182 -22.38658413 56.19387603 -22.37321877 59.57401133 C-22.36184695 63.12127088 -22.36601607 66.66851724 -22.3679657 70.21578979 C-22.36884664 76.16889181 -22.35780834 82.12187951 -22.33935547 88.07495117 C-22.31817142 94.94829624 -22.3146833 101.8214742 -22.32091743 108.69484532 C-22.32661948 115.32207697 -22.32095677 121.94925004 -22.30974388 128.57647324 C-22.30511101 131.3905229 -22.30421832 134.20453659 -22.30632973 137.01858902 C-22.30856971 140.94889763 -22.29407761 144.87904848 -22.27783203 148.80932617 C-22.28030945 149.97208069 -22.28278687 151.13483521 -22.28533936 152.33282471 C-22.25028807 157.64482626 -22.16843806 162.16172888 -20.00317383 167.11352539 C-19.73504883 167.81477539 -19.46692383 168.51602539 -19.19067383 169.23852539 C-16.95400733 172.77010407 -13.42927695 174.82945664 -10.00317383 177.11352539 C-7.43267639 177.42684041 -7.43267639 177.42684041 -4.49519348 177.39440918 C-3.34989166 177.40582947 -2.20458984 177.41724976 -1.02458191 177.42901611 C0.23311508 177.43125183 1.49081207 177.43348755 2.78662109 177.43579102 C4.12382555 177.44504932 5.46102473 177.45509891 6.79821777 177.46588135 C10.43275688 177.49212065 14.06722209 177.50501819 17.70184112 177.51390266 C19.97419905 177.5197674 22.24653686 177.52797776 24.51888466 177.53691101 C31.63305288 177.56426269 38.74717504 177.58359337 45.8613922 177.59131479 C54.06497598 177.600268 62.2678919 177.6353241 70.47127265 177.69331598 C76.817067 177.73661313 83.16267393 177.75672679 89.50861436 177.75939703 C93.29628415 177.76148927 97.08332624 177.77321833 100.87084007 177.80903625 C104.43750789 177.84210849 108.00308015 177.84625809 111.56984711 177.82875824 C113.4935099 177.82649433 115.41713717 177.85384934 117.34059143 177.88226318 C123.95343723 177.81873391 128.39980612 177.30375564 133.42440796 172.79477978 C137.97268391 167.93169129 139.49538376 164.60977135 139.52685547 157.93066406 C139.53558685 157.23889069 139.54431824 156.54711731 139.55331421 155.8343811 C139.57755307 153.56648295 139.57428938 151.29950466 139.57104492 149.03149414 C139.5834958 147.45061193 139.59783162 145.86974354 139.6139679 144.28889465 C139.65190918 140.14154174 139.66716913 135.9944275 139.67675781 131.84692383 C139.69654415 125.19105597 139.75321996 118.53536913 139.80552101 111.87969398 C139.82090642 109.55244488 139.82806376 107.22528606 139.83366394 104.897995 C139.84067583 103.48180088 139.84777641 102.06560721 139.85498047 100.64941406 C139.85845993 99.40842453 139.86193939 98.167435 139.86552429 96.88883972 C139.99682617 94.11352539 139.99682617 94.11352539 140.99682617 93.11352539 C143.32842672 93.01443237 145.66312559 92.98382035 147.99682617 92.98852539 C149.27557617 92.98594727 150.55432617 92.98336914 151.87182617 92.98071289 C154.99682617 93.11352539 154.99682617 93.11352539 155.99682617 94.11352539 C156.1068241 96.17167213 156.14595772 98.2336286 156.15795898 100.29467773 C156.16292389 100.94039734 156.16788879 101.58611694 156.17300415 102.25140381 C156.18767634 104.40076755 156.19444094 106.55005716 156.19995117 108.69946289 C156.20570456 110.19625856 156.21146227 111.69305422 156.21722412 113.18984985 C156.22775257 116.33905379 156.23358114 119.4882321 156.23706055 122.63745117 C156.24250738 126.64631715 156.26644452 130.6548369 156.2950325 134.6635952 C156.31380108 137.76255218 156.31887227 140.86142879 156.32039642 143.96043777 C156.32339855 145.43622324 156.33134323 146.91200813 156.3445816 148.38773727 C156.4559969 161.77891425 154.9780273 173.59735534 145.99682617 184.11352539 C135.8293401 192.53011507 125.77099959 194.56492205 112.88061523 194.53344727 C110.9494989 194.54615158 110.9494989 194.54615158 108.97937012 194.55911255 C105.47081905 194.58119813 101.96250373 194.58426567 98.45389271 194.58236504 C95.512017 194.58224469 92.57019009 194.59083503 89.62832808 194.59914255 C82.67918706 194.61833136 75.73016611 194.62127758 68.78100586 194.61450195 C61.64348129 194.60786986 54.50647464 194.63070197 47.36905503 194.66781569 C41.21412658 194.69864375 35.05936356 194.70985846 28.90435958 194.70597887 C25.24024179 194.70392422 21.57652697 194.70918863 17.91248322 194.73387146 C13.818186 194.76054472 9.72496196 194.7463117 5.63061523 194.72875977 C4.43849426 194.74202301 3.24637329 194.75528625 2.01812744 194.76895142 C-11.57138136 194.63443413 -21.97185162 189.66543927 -31.75317383 180.55102539 C-38.22638617 172.14538028 -38.5863837 160.51633485 -38.50488281 150.38793945 C-38.5102858 149.08376572 -38.51568878 147.77959198 -38.52125549 146.43589783 C-38.53506327 142.90087788 -38.52414804 139.36635262 -38.50754428 135.83136082 C-38.49356068 132.1106954 -38.5001684 128.39005486 -38.50367737 124.66937256 C-38.50636774 118.42915999 -38.49300098 112.18914108 -38.46972656 105.94897461 C-38.44307739 98.75459422 -38.4413889 91.56053634 -38.45311493 84.36612344 C-38.46392312 77.4126376 -38.45768486 70.45926739 -38.44355965 63.50579071 C-38.43783084 60.56023139 -38.43785775 57.61475755 -38.44262505 54.66919708 C-38.44831849 50.55313289 -38.42900423 46.43754371 -38.40722656 42.3215332 C-38.41172821 41.11196457 -38.41622986 39.90239594 -38.42086792 38.65617371 C-38.32462676 27.68110922 -35.84480986 18.37698635 -28.21801758 10.19946289 C-19.89927481 2.42648257 -11.20552408 -0.05448354 0 0 Z " fill="#EFEEEF" transform="translate(150.003173828125,183.886474609375)"/>
<path d="M0 0 C-3.99977763 18.7159406 -10.1854918 36.79283307 -16.375 54.875 C-16.69335815 55.80538086 -17.01171631 56.73576172 -17.33972168 57.69433594 C-18.25247186 60.35704287 -19.16824861 63.01867899 -20.0859375 65.6796875 C-20.36482819 66.49009491 -20.64371887 67.30050232 -20.93106079 68.13546753 C-22.88067595 73.7613519 -22.88067595 73.7613519 -24 76 C-31.92 76 -39.84 76 -48 76 C-48.09687303 77.31241553 -48.09687303 77.31241553 -46.4375 79.1875 C-44.62947038 82.72494925 -44.80318115 84.24996762 -46 88 C-47.64127014 90.59867772 -48.96043638 91.6255809 -51.84375 92.6640625 C-54.69089516 93.10763946 -56.25133606 92.96203238 -59 92 C-63.79304485 88.4499276 -69.32939071 83.34121858 -72 78 C-73.65 78 -75.3 78 -77 78 C-77.33 77.01 -77.66 76.02 -78 75 C-80.50447516 73.78130071 -80.50447516 73.78130071 -83 73 C-83 72.34 -83 71.68 -83 71 C-82.34 71 -81.68 71 -81 71 C-81.43570313 70.50371094 -81.87140625 70.00742187 -82.3203125 69.49609375 C-83.56567047 68.07552308 -84.80627354 66.65077475 -86.04296875 65.22265625 C-87.26831961 63.8309903 -88.5177598 62.45977774 -89.80078125 61.12109375 C-92.42048272 58.32632869 -93.86063744 56.6968128 -94.625 52.875 C-93.8222867 49.18251882 -92.81852075 47.5294417 -90 45 C-86.37061908 44.0278444 -84.09964462 43.57705976 -80.5625 44.9375 C-79.7890625 45.4634375 -79.7890625 45.4634375 -79 46 C-77.7736243 43.54724859 -77.88584686 41.9494219 -77.90234375 39.2109375 C-77.90717773 37.79941406 -77.90717773 37.79941406 -77.91210938 36.359375 C-77.92048828 35.37453125 -77.92886719 34.3896875 -77.9375 33.375 C-77.94201172 32.38242188 -77.94652344 31.38984375 -77.95117188 30.3671875 C-77.96297855 27.9113984 -77.979446 25.45572896 -78 23 C-72.37290676 20.40938467 -66.71351131 18.70772872 -60.75 17.0625 C-48.3093654 13.54697013 -36.12920669 9.36168198 -23.93261719 5.08813477 C-23.20198059 4.83333344 -22.47134399 4.5785321 -21.71856689 4.31600952 C-20.3544088 3.83977089 -18.99131056 3.36047921 -17.62957764 2.87734985 C-4.96748266 -1.54466849 -4.96748266 -1.54466849 0 0 Z M-43 38 C-43.33 39.32 -43.66 40.64 -44 42 C-42.68 42 -41.36 42 -40 42 C-40 40.68 -40 39.36 -40 38 C-40.99 38 -41.98 38 -43 38 Z M-78 47 C-76.38262276 50.23475448 -75.52370777 51.70572021 -73 54 C-72.34 53.67 -71.68 53.34 -71 53 C-73.31 51.02 -75.62 49.04 -78 47 Z M-69 56 C-67.35 57.98 -65.7 59.96 -64 62 C-63.68416352 59.02482427 -63.68416352 59.02482427 -65.375 57.3125 C-66.91117258 55.7905543 -66.91117258 55.7905543 -69 56 Z M-60 65 C-58.38262276 68.23475448 -57.52370777 69.70572021 -55 72 C-54.34 71.67 -53.68 71.34 -53 71 C-55.31 69.02 -57.62 67.04 -60 65 Z " fill="#F7F6F6" transform="translate(305,188)"/>
<path d="M0 0 C1.93676846 1.79686645 3.52203723 3.73067154 5.171875 5.79296875 C8.88989927 10.28160916 13.07771373 14.96261504 19 16 C18.67 17.32 18.34 18.64 18 20 C18.66 20 19.32 20 20 20 C21.15675027 21.39490474 22.30853866 22.7942518 23.43359375 24.21484375 C25.77323826 26.88122166 28.48506522 29.05284471 31.23046875 31.2890625 C33.1152901 33.11147254 34.06882903 34.55869167 35 37 C34.8572612 40.42573131 34.33258527 42.47340665 32.5 45.375 C29.40070508 47.3895417 27.3502181 48.04050654 23.65625 47.9296875 C17.56707897 45.79847764 10.84466107 38.68932214 8 33 C6.35 33 4.7 33 3 33 C2.67 32.01 2.34 31.02 2 30 C-0.50447516 28.78130071 -0.50447516 28.78130071 -3 28 C-3 27.34 -3 26.68 -3 26 C-2.34 26 -1.68 26 -1 26 C-1.65355469 25.25556641 -1.65355469 25.25556641 -2.3203125 24.49609375 C-3.56567047 23.07552308 -4.80627354 21.65077475 -6.04296875 20.22265625 C-7.26831961 18.8309903 -8.5177598 17.45977774 -9.80078125 16.12109375 C-12.42048272 13.32632869 -13.86063744 11.6968128 -14.625 7.875 C-13.8504491 4.31206586 -12.56445396 2.56445396 -10 0 C-6.02373645 -1.32542118 -4.05552496 -1.1490654 0 0 Z " fill="#EFEFEF" transform="translate(225,233)"/>
<path d="M0 0 C0.33 0 0.66 0 1 0 C2.17293437 5.45789664 2.03974845 10.66920631 1.87890625 16.2109375 C1.85529526 17.17907379 1.83168427 18.14721008 1.80735779 19.14468384 C1.73109209 22.22161898 1.64690904 25.29827855 1.5625 28.375 C1.50924215 30.46743466 1.45650203 32.55988256 1.40429688 34.65234375 C1.27552738 39.76840201 1.13965925 44.8842279 1 50 C-1.0435519 46.93467215 -1.24970447 46.33210231 -1.24291992 42.88330078 C-1.24599655 42.05879425 -1.24907318 41.23428772 -1.25224304 40.38479614 C-1.24505753 39.49726654 -1.23787201 38.60973694 -1.23046875 37.6953125 C-1.23001053 36.77918182 -1.22955231 35.86305115 -1.2290802 34.91915894 C-1.2260589 32.98076076 -1.21817623 31.04236499 -1.20581055 29.10400391 C-1.18761351 26.14346667 -1.18530053 23.18324345 -1.18554688 20.22265625 C-1.1806291 18.33853897 -1.17479966 16.45442381 -1.16796875 14.5703125 C-1.16685593 13.68683136 -1.1657431 12.80335022 -1.16459656 11.89309692 C-1.13318214 7.8021805 -1.02694318 3.98996878 0 0 Z " fill="#BCBCBC" transform="translate(148,289)"/>
<path d="M0 0 C-0.66 2.97 -1.32 5.94 -2 9 C-2.66 7.68 -3.32 6.36 -4 5 C-4.639375 5.639375 -5.27875 6.27875 -5.9375 6.9375 C-6.38609375 7.38351563 -6.8346875 7.82953125 -7.296875 8.2890625 C-8.62981525 9.62811716 -9.95019188 10.97968059 -11.265625 12.3359375 C-12.06484375 13.15320313 -12.8640625 13.97046875 -13.6875 14.8125 C-14.45449219 15.60269531 -15.22148437 16.39289063 -16.01171875 17.20703125 C-18 19 -18 19 -20 19 C-20 19.66 -20 20.32 -20 21 C-23.46153846 24 -23.46153846 24 -26 24 C-26 23.34 -26 22.68 -26 22 C-25.34 22 -24.68 22 -24 22 C-24 21.34 -24 20.68 -24 20 C-22.60057872 19.11256212 -21.19985986 18.22710994 -19.79296875 17.3515625 C-16.91026311 15.17854256 -14.77844502 12.40222494 -12.515625 9.609375 C-12.01546875 9.07828125 -11.5153125 8.5471875 -11 8 C-10.34 8 -9.68 8 -9 8 C-7.88941214 5.92690266 -7.02601506 4.11381589 -6.5 1.8125 C-6.335 1.214375 -6.17 0.61625 -6 0 C-4 -1 -4 -1 0 0 Z " fill="#CBC9CA" transform="translate(305,188)"/>
<path d="M0 0 C0.33 0.99 0.66 1.98 1 3 C-0.61886415 4.67262717 -2.2452729 6.33795537 -3.875 8 C-5.23238281 9.3921875 -5.23238281 9.3921875 -6.6171875 10.8125 C-9 13 -9 13 -11 13 C-11 14.65 -11 16.3 -11 18 C-11.99 18 -12.98 18 -14 18 C-13.67 17.01 -13.34 16.02 -13 15 C-13.99 15 -14.98 15 -16 15 C-16.66 15.99 -17.32 16.98 -18 18 C-18 16.02 -18 14.04 -18 12 C-17.175 12.165 -16.35 12.33 -15.5 12.5 C-10.66035475 11.80862211 -8.9123449 9.29750128 -5.734375 5.75 C-4.87585938 4.88375 -4.87585938 4.88375 -4 4 C-3.34 4 -2.68 4 -2 4 C-1.34 2.68 -0.68 1.36 0 0 Z " fill="#D7D4D3" transform="translate(278,212)"/>
<path d="M0 0 C-0.66 2.97 -1.32 5.94 -2 9 C-2.66 7.68 -3.32 6.36 -4 5 C-6.475 6.485 -6.475 6.485 -9 8 C-8.690625 7.4225 -8.38125 6.845 -8.0625 6.25 C-6.9327131 4.0661063 -6.9327131 4.0661063 -6.5 1.8125 C-6.335 1.214375 -6.17 0.61625 -6 0 C-4 -1 -4 -1 0 0 Z " fill="#8B8A8A" transform="translate(305,188)"/>
<path d="M0 0 C0 0.33 0 0.66 0 1 C-1.2375 1.061875 -2.475 1.12375 -3.75 1.1875 C-7.1674369 1.60411333 -7.81646353 1.81646353 -10.375 4.375 C-11.179375 5.674375 -11.179375 5.674375 -12 7 C-12.66 7.99 -13.32 8.98 -14 10 C-13.38976378 3.53149606 -13.38976378 3.53149606 -11.625 1.125 C-7.67529199 -1.60941324 -4.50490847 -0.76498446 0 0 Z " fill="#BDBDBD" transform="translate(225,233)"/>
<path d="M0 0 C0.33 0.66 0.66 1.32 1 2 C-1.85276137 4.93200474 -4.65079784 7.64315404 -8 10 C-6.68745073 6.0623522 -5.1247232 3.7341328 -2 1 C-1.34 0.67 -0.68 0.34 0 0 Z " fill="#A0A0A0" transform="translate(157,279)"/>
<path d="M0 0 C0.99 0.33 1.98 0.66 3 1 C0.69 3.31 -1.62 5.62 -4 8 C-4.66 7.34 -5.32 6.68 -6 6 C-4 4 -2 2 0 0 Z " fill="#D7D5D6" transform="translate(294,196)"/>
</svg>
